<svg width="64" height="64" viewBox="0 0 64 64" fill="none" xmlns="http://www.w3.org/2000/svg">
<path d="M29.9429 1.56952C31.2092 0.810159 32.7909 0.810159 34.0572 1.56952L39.9132 5.08115C40.4323 5.39244 41.0153 5.58186 41.6182 5.63514L48.4199 6.23623C49.8907 6.36621 51.1702 7.29588 51.7484 8.65454L54.4219 14.9376C54.6589 15.4945 55.0192 15.9904 55.4756 16.3879L60.625 20.8721C61.7385 21.8418 62.2272 23.3461 61.8964 24.785L60.3662 31.4395C60.2305 32.0294 60.2305 32.6424 60.3662 33.2323L61.8964 39.8868C62.2272 41.3258 61.7385 42.83 60.625 43.7997L55.4756 48.2839C55.0192 48.6814 54.6589 49.1773 54.4219 49.7343L51.7484 56.0173C51.1702 57.376 49.8907 58.3056 48.4199 58.4356L41.6182 59.0367C41.0153 59.09 40.4323 59.2794 39.9132 59.5907L34.0572 63.1023C32.7909 63.8617 31.2092 63.8617 29.9429 63.1023L24.087 59.5907C23.5679 59.2794 22.9849 59.09 22.382 59.0367L15.5803 58.4356C14.1095 58.3056 12.8299 57.376 12.2518 56.0173L9.57829 49.7343C9.3413 49.1773 8.98099 48.6814 8.52453 48.2839L3.37518 43.7997C2.26167 42.83 1.77291 41.3258 2.1038 39.8868L3.63396 33.2323C3.7696 32.6424 3.7696 32.0294 3.63396 31.4395L2.1038 24.785C1.77291 23.3461 2.26167 21.8418 3.37518 20.8721L8.52453 16.3879C8.98099 15.9904 9.3413 15.4945 9.57829 14.9376L12.2518 8.65454C12.8299 7.29588 14.1095 6.36621 15.5803 6.23623L22.382 5.63514C22.9849 5.58186 23.5679 5.39244 24.087 5.08115L29.9429 1.56952Z" fill="#C3C3C5"/>
<path fill-rule="evenodd" clip-rule="evenodd" d="M39.3989 5.93877L33.5429 2.42714C32.5932 1.85762 31.407 1.85762 30.4572 2.42714L24.6013 5.93877C23.9524 6.32788 23.2237 6.56465 22.47 6.63126L15.6683 7.23234C14.5652 7.32983 13.6055 8.02709 13.1719 9.04608L10.4985 15.3291C10.2022 16.0253 9.75183 16.6452 9.18125 17.1421L4.0319 21.6263C3.19677 22.3535 2.8302 23.4817 3.07837 24.5609L4.60853 31.2154C4.77808 31.9528 4.77808 32.719 4.60853 33.4564L3.07837 40.1109C2.8302 41.1901 3.19677 42.3183 4.0319 43.0456L9.18125 47.5298C9.75183 48.0267 10.2022 48.6466 10.4984 49.3428L13.1719 55.6258C13.6055 56.6448 14.5652 57.342 15.6683 57.4395L22.47 58.0406C23.2237 58.1072 23.9524 58.344 24.6013 58.7331L30.4572 62.2447C31.407 62.8142 32.5932 62.8142 33.5429 62.2447L39.3989 58.7331C40.0478 58.344 40.7765 58.1072 41.5302 58.0406L48.3318 57.4395C49.4349 57.342 50.3946 56.6448 50.8282 55.6258L53.5017 49.3428C53.798 48.6466 54.2483 48.0267 54.8189 47.5298L59.9683 43.0456C60.8034 42.3183 61.17 41.1901 60.9218 40.1109L59.3916 33.4564C59.2221 32.719 59.2221 31.9528 59.3916 31.2155L60.9218 24.5609C61.17 23.4817 60.8034 22.3535 59.9683 21.6263L54.8189 17.1421C54.2483 16.6452 53.798 16.0253 53.5017 15.3291L50.8282 9.04608C50.3946 8.02709 49.4349 7.32983 48.3318 7.23234L41.5302 6.63126C40.7765 6.56465 40.0478 6.32788 39.3989 5.93877ZM34.0572 1.56952C32.7909 0.810159 31.2092 0.810159 29.9429 1.56952L24.087 5.08115C23.5679 5.39244 22.9849 5.58186 22.382 5.63514L15.5803 6.23623C14.1095 6.36621 12.8299 7.29588 12.2518 8.65454L9.57829 14.9376C9.3413 15.4945 8.98099 15.9904 8.52453 16.3879L3.37518 20.8721C2.26167 21.8418 1.77291 23.3461 2.1038 24.785L3.63396 31.4395C3.7696 32.0294 3.7696 32.6424 3.63396 33.2323L2.1038 39.8868C1.77291 41.3258 2.26167 42.83 3.37518 43.7997L8.52453 48.2839C8.98099 48.6814 9.3413 49.1773 9.57829 49.7343L12.2518 56.0173C12.8299 57.376 14.1095 58.3056 15.5803 58.4356L22.382 59.0367C22.9849 59.09 23.5679 59.2794 24.087 59.5907L29.9429 63.1023C31.2092 63.8617 32.7909 63.8617 34.0572 63.1023L39.9132 59.5907C40.4323 59.2794 41.0153 59.09 41.6182 59.0367L48.4199 58.4356C49.8907 58.3056 51.1703 57.376 51.7484 56.0173L54.4219 49.7343C54.6589 49.1773 55.0192 48.6814 55.4756 48.2839L60.625 43.7997C61.7385 42.83 62.2272 41.3258 61.8964 39.8868L60.3662 33.2323C60.2306 32.6424 60.2306 32.0294 60.3662 31.4395L61.8964 24.785C62.2272 23.3461 61.7385 21.8418 60.625 20.8721L55.4756 16.3879C55.0192 15.9904 54.6589 15.4945 54.4219 14.9376L51.7484 8.65454C51.1703 7.29588 49.8907 6.36621 48.4199 6.23623L41.6182 5.63514C41.0153 5.58186 40.4323 5.39244 39.9132 5.08115L34.0572 1.56952Z" fill="#87878C"/>
<path d="M21.5 31.7622L30.1724 35.587C31.3359 36.1001 32.6641 36.1001 33.8276 35.587L42.5 31.7622V41.4622C42.5 43.5174 37.799 46.6719 32 46.6719C26.201 46.6719 21.5 43.5174 21.5 41.4622V31.7622Z" fill="#EAEAEB"/>
<path d="M33.8276 19.0567C32.6641 18.5436 31.3359 18.5436 30.1724 19.0567L17.8908 24.4732C17.3491 24.7121 17 25.2452 17 25.8334C17 26.4216 17.3491 26.9547 17.8908 27.1936L30.1724 32.6101C31.3359 33.1232 32.6641 33.1232 33.8276 32.6101L46.1092 27.1936C46.6509 26.9547 47 26.4216 47 25.8334C47 25.2452 46.6509 24.7121 46.1092 24.4732L33.8276 19.0567Z" fill="#EAEAEB"/>
<path fill-rule="evenodd" clip-rule="evenodd" d="M33.6259 19.5142C32.5909 19.0577 31.4091 19.0577 30.3741 19.5142L18.0926 24.9307C17.7306 25.0903 17.5 25.445 17.5 25.8334C17.5 26.2218 17.7306 26.5764 18.0926 26.7361L30.3741 32.1526C31.4091 32.609 32.5909 32.609 33.6259 32.1526L45.9074 26.7361C46.2694 26.5764 46.5 26.2218 46.5 25.8334C46.5 25.445 46.2694 25.0903 45.9074 24.9307L33.6259 19.5142ZM29.9706 18.5992C31.2627 18.0294 32.7373 18.0294 34.0294 18.5992L46.311 24.0157C47.0324 24.3339 47.5 25.0454 47.5 25.8334C47.5 26.6214 47.0324 27.3329 46.311 27.651L34.0294 33.0675C32.7373 33.6374 31.2627 33.6374 29.9706 33.0675L17.689 27.651L17.8908 27.1936L17.689 27.651C16.9676 27.3329 16.5 26.6214 16.5 25.8334C16.5 25.0454 16.9676 24.3339 17.689 24.0157L29.9706 18.5992ZM21.2269 31.3434C21.3685 31.2511 21.5471 31.2366 21.7018 31.3048L30.3741 35.1295C31.4091 35.586 32.5909 35.586 33.6259 35.1295L42.2982 31.3048C42.4529 31.2366 42.6315 31.2511 42.7731 31.3434C42.9146 31.4357 43 31.5932 43 31.7622V41.4622C43 42.1573 42.6114 42.856 42.0449 43.4795C41.4675 44.1149 40.6508 44.7337 39.6657 45.2758C37.694 46.3607 34.9864 47.1719 32 47.1719C29.0136 47.1719 26.306 46.3607 24.3343 45.2758C23.3492 44.7337 22.5325 44.1149 21.9551 43.4795C21.3886 42.856 21 42.1573 21 41.4622V31.7622C21 31.5932 21.0854 31.4357 21.2269 31.3434ZM22 32.5292V41.4622C22 41.7948 22.1991 42.261 22.6952 42.807C23.1805 43.3411 23.9015 43.8962 24.8164 44.3997C26.645 45.4058 29.1874 46.1719 32 46.1719C34.8126 46.1719 37.355 45.4058 39.1836 44.3997C40.0985 43.8962 40.8195 43.3411 41.3048 42.807C41.8009 42.261 42 41.7948 42 41.4622V32.5292L34.0294 36.0445C32.7373 36.6143 31.2627 36.6143 29.9706 36.0445L22 32.5292Z" fill="#87878C"/>
</svg>
