<svg width="64" height="64" viewBox="0 0 64 64" fill="none" xmlns="http://www.w3.org/2000/svg">
<path d="M29.9429 1.56952C31.2092 0.810159 32.7909 0.810159 34.0572 1.56952L39.9132 5.08115C40.4323 5.39244 41.0153 5.58186 41.6182 5.63514L48.4199 6.23623C49.8907 6.36621 51.1702 7.29588 51.7484 8.65454L54.4219 14.9376C54.6589 15.4945 55.0192 15.9904 55.4756 16.3879L60.625 20.8721C61.7385 21.8418 62.2272 23.3461 61.8964 24.785L60.3662 31.4395C60.2305 32.0294 60.2305 32.6424 60.3662 33.2323L61.8964 39.8868C62.2272 41.3258 61.7385 42.83 60.625 43.7997L55.4756 48.2839C55.0192 48.6814 54.6589 49.1773 54.4219 49.7343L51.7484 56.0173C51.1702 57.376 49.8907 58.3056 48.4199 58.4356L41.6182 59.0367C41.0153 59.09 40.4323 59.2794 39.9132 59.5907L34.0572 63.1023C32.7909 63.8617 31.2092 63.8617 29.9429 63.1023L24.087 59.5907C23.5679 59.2794 22.9849 59.09 22.382 59.0367L15.5803 58.4356C14.1095 58.3056 12.8299 57.376 12.2518 56.0173L9.57829 49.7343C9.3413 49.1773 8.98099 48.6814 8.52453 48.2839L3.37518 43.7997C2.26167 42.83 1.77291 41.3258 2.1038 39.8868L3.63396 33.2323C3.7696 32.6424 3.7696 32.0294 3.63396 31.4395L2.1038 24.785C1.77291 23.3461 2.26167 21.8418 3.37518 20.8721L8.52453 16.3879C8.98099 15.9904 9.3413 15.4945 9.57829 14.9376L12.2518 8.65454C12.8299 7.29588 14.1095 6.36621 15.5803 6.23623L22.382 5.63514C22.9849 5.58186 23.5679 5.39244 24.087 5.08115L29.9429 1.56952Z" fill="#C3C3C5"/>
<path fill-rule="evenodd" clip-rule="evenodd" d="M39.3989 5.93877L33.5429 2.42714C32.5932 1.85762 31.407 1.85762 30.4572 2.42714L24.6013 5.93877C23.9524 6.32788 23.2237 6.56465 22.47 6.63126L15.6683 7.23234C14.5652 7.32983 13.6055 8.02709 13.1719 9.04608L10.4985 15.3291C10.2022 16.0253 9.75183 16.6452 9.18125 17.1421L4.0319 21.6263C3.19677 22.3535 2.8302 23.4817 3.07837 24.5609L4.60853 31.2154C4.77808 31.9528 4.77808 32.719 4.60853 33.4564L3.07837 40.1109C2.8302 41.1901 3.19677 42.3183 4.0319 43.0456L9.18125 47.5298C9.75183 48.0267 10.2022 48.6466 10.4984 49.3428L13.1719 55.6258C13.6055 56.6448 14.5652 57.342 15.6683 57.4395L22.47 58.0406C23.2237 58.1072 23.9524 58.344 24.6013 58.7331L30.4572 62.2447C31.407 62.8142 32.5932 62.8142 33.5429 62.2447L39.3989 58.7331C40.0478 58.344 40.7765 58.1072 41.5302 58.0406L48.3318 57.4395C49.4349 57.342 50.3946 56.6448 50.8282 55.6258L53.5017 49.3428C53.798 48.6466 54.2483 48.0267 54.8189 47.5298L59.9683 43.0456C60.8034 42.3183 61.17 41.1901 60.9218 40.1109L59.3916 33.4564C59.2221 32.719 59.2221 31.9528 59.3916 31.2155L60.9218 24.5609C61.17 23.4817 60.8034 22.3535 59.9683 21.6263L54.8189 17.1421C54.2483 16.6452 53.798 16.0253 53.5017 15.3291L50.8282 9.04608C50.3946 8.02709 49.4349 7.32983 48.3318 7.23234L41.5302 6.63126C40.7765 6.56465 40.0478 6.32788 39.3989 5.93877ZM34.0572 1.56952C32.7909 0.810159 31.2092 0.810159 29.9429 1.56952L24.087 5.08115C23.5679 5.39244 22.9849 5.58186 22.382 5.63514L15.5803 6.23623C14.1095 6.36621 12.8299 7.29588 12.2518 8.65454L9.57829 14.9376C9.3413 15.4945 8.98099 15.9904 8.52453 16.3879L3.37518 20.8721C2.26167 21.8418 1.77291 23.3461 2.1038 24.785L3.63396 31.4395C3.7696 32.0294 3.7696 32.6424 3.63396 33.2323L2.1038 39.8868C1.77291 41.3258 2.26167 42.83 3.37518 43.7997L8.52453 48.2839C8.98099 48.6814 9.3413 49.1773 9.57829 49.7343L12.2518 56.0173C12.8299 57.376 14.1095 58.3056 15.5803 58.4356L22.382 59.0367C22.9849 59.09 23.5679 59.2794 24.087 59.5907L29.9429 63.1023C31.2092 63.8617 32.7909 63.8617 34.0572 63.1023L39.9132 59.5907C40.4323 59.2794 41.0153 59.09 41.6182 59.0367L48.4199 58.4356C49.8907 58.3056 51.1703 57.376 51.7484 56.0173L54.4219 49.7343C54.6589 49.1773 55.0192 48.6814 55.4756 48.2839L60.625 43.7997C61.7385 42.83 62.2272 41.3258 61.8964 39.8868L60.3662 33.2323C60.2306 32.6424 60.2306 32.0294 60.3662 31.4395L61.8964 24.785C62.2272 23.3461 61.7385 21.8418 60.625 20.8721L55.4756 16.3879C55.0192 15.9904 54.6589 15.4945 54.4219 14.9376L51.7484 8.65454C51.1703 7.29588 49.8907 6.36621 48.4199 6.23623L41.6182 5.63514C41.0153 5.58186 40.4323 5.39244 39.9132 5.08115L34.0572 1.56952Z" fill="#87878C"/>
<path fill-rule="evenodd" clip-rule="evenodd" d="M34.4682 20.0144C34.5962 19.7024 34.6668 19.3607 34.6668 19.0026C34.6668 17.5298 33.4729 16.3359 32.0002 16.3359C30.5274 16.3359 29.3335 17.5298 29.3335 19.0026C29.3335 19.3607 29.4041 19.7024 29.5321 20.0144L22.2182 24.1883C21.7398 23.4734 20.925 23.0026 20.0002 23.0026C18.5274 23.0026 17.3335 24.1965 17.3335 25.6693C17.3335 27.142 18.5274 28.3359 20.0002 28.3359V36.3359C18.5274 36.3359 17.3335 37.5298 17.3335 39.0026C17.3335 40.4754 18.5274 41.6693 20.0002 41.6693C20.925 41.6693 21.7398 41.1985 22.2182 40.4835L29.5321 44.6575C29.4041 44.9695 29.3335 45.3111 29.3335 45.6693C29.3335 47.142 30.5274 48.3359 32.0002 48.3359C33.4729 48.3359 34.6668 47.142 34.6668 45.6693C34.6668 45.3111 34.5962 44.9695 34.4682 44.6575L41.7822 40.4835C42.2605 41.1985 43.0753 41.6693 44.0002 41.6693C45.4729 41.6693 46.6668 40.4754 46.6668 39.0026C46.6668 37.5298 45.4729 36.3359 44.0002 36.3359V28.3359C45.4729 28.3359 46.6668 27.142 46.6668 25.6693C46.6668 24.1965 45.4729 23.0026 44.0002 23.0026C43.0753 23.0026 42.2605 23.4734 41.7822 24.1883L34.4682 20.0144Z" fill="#EAEAEB"/>
<path fill-rule="evenodd" clip-rule="evenodd" d="M28.8335 19.0026C28.8335 17.2537 30.2513 15.8359 32.0002 15.8359C33.7491 15.8359 35.1668 17.2537 35.1668 19.0026C35.1668 19.2712 35.1333 19.5324 35.07 19.7821L41.6558 23.5405C42.2346 22.9035 43.0705 22.5026 44.0002 22.5026C45.7491 22.5026 47.1668 23.9204 47.1668 25.6693C47.1668 27.248 46.0115 28.5569 44.5002 28.7967V35.8752C46.0115 36.1149 47.1668 37.4238 47.1668 39.0026C47.1668 40.7515 45.7491 42.1693 44.0002 42.1693C43.0705 42.1693 42.2346 41.7683 41.6558 41.1313L35.07 44.8897C35.1333 45.1394 35.1668 45.4007 35.1668 45.6693C35.1668 47.4182 33.7491 48.8359 32.0002 48.8359C30.2513 48.8359 28.8335 47.4182 28.8335 45.6693C28.8335 45.4007 28.867 45.1394 28.9303 44.8897L22.3446 41.1313C21.7658 41.7683 20.9299 42.1693 20.0002 42.1693C18.2513 42.1693 16.8335 40.7515 16.8335 39.0026C16.8335 37.4238 17.9888 36.1149 19.5002 35.8752V28.7967C17.9888 28.5569 16.8335 27.248 16.8335 25.6693C16.8335 23.9204 18.2513 22.5026 20.0002 22.5026C20.9299 22.5026 21.7658 22.9035 22.3446 23.5405L28.9303 19.7821C28.867 19.5324 28.8335 19.2712 28.8335 19.0026ZM32.0002 16.8359C30.8035 16.8359 29.8335 17.806 29.8335 19.0026C29.8335 19.2945 29.891 19.5717 29.9947 19.8245L30.1615 20.2309L22.0615 24.8534L21.8026 24.4664C21.4131 23.8842 20.7511 23.5026 20.0002 23.5026C18.8035 23.5026 17.8335 24.4726 17.8335 25.6693C17.8335 26.8659 18.8035 27.8359 20.0002 27.8359H20.5002V36.8359H20.0002C18.8035 36.8359 17.8335 37.806 17.8335 39.0026C17.8335 40.1992 18.8035 41.1693 20.0002 41.1693C20.7511 41.1693 21.4131 40.7877 21.8026 40.2055L22.0615 39.8184L30.1615 44.4409L29.9947 44.8473C29.891 45.1001 29.8335 45.3773 29.8335 45.6693C29.8335 46.8659 30.8035 47.8359 32.0002 47.8359C33.1968 47.8359 34.1668 46.8659 34.1668 45.6693C34.1668 45.3773 34.1094 45.1001 34.0056 44.8473L33.8389 44.4409L41.9388 39.8184L42.1977 40.2055C42.5872 40.7877 43.2492 41.1693 44.0002 41.1693C45.1968 41.1693 46.1668 40.1992 46.1668 39.0026C46.1668 37.806 45.1968 36.8359 44.0002 36.8359H43.5002V27.8359H44.0002C45.1968 27.8359 46.1668 26.8659 46.1668 25.6693C46.1668 24.4726 45.1968 23.5026 44.0002 23.5026C43.2492 23.5026 42.5872 23.8842 42.1977 24.4664L41.9388 24.8534L33.8389 20.2309L34.0056 19.8245C34.1094 19.5717 34.1668 19.2945 34.1668 19.0026C34.1668 17.806 33.1968 16.8359 32.0002 16.8359Z" fill="#87878C"/>
<path d="M32.5008 28.1404C32.1912 27.9615 31.8097 27.9615 31.5002 28.1404L28.6335 29.7968C28.3243 29.9755 28.1338 30.3055 28.1338 30.6627V34.0092C28.1338 34.3663 28.3243 34.6963 28.6335 34.875L31.5002 36.5314C31.8097 36.7103 32.1912 36.7103 32.5008 36.5314L35.3674 34.875C35.6767 34.6963 35.8671 34.3663 35.8671 34.0092V30.6627C35.8671 30.3055 35.6767 29.9755 35.3674 29.7968L33.9338 28.9684L32.5008 28.1404Z" fill="#EAEAEB"/>
<path fill-rule="evenodd" clip-rule="evenodd" d="M32.2506 28.5733C32.0958 28.4839 31.9051 28.4839 31.7503 28.5733L28.8836 30.2297C28.729 30.3191 28.6338 30.4841 28.6338 30.6627V34.0092C28.6338 34.1877 28.729 34.3528 28.8836 34.4421L31.7503 36.0985C31.9051 36.1879 32.0958 36.1879 32.2506 36.0985L35.1173 34.4421C35.2719 34.3528 35.3671 34.1877 35.3671 34.0092V30.6627C35.3671 30.4841 35.2719 30.3191 35.1173 30.2297L32.2506 28.5733ZM31.25 27.7075C31.7143 27.4392 32.2866 27.4392 32.7509 27.7075L35.6176 29.3639C36.0814 29.6319 36.3671 30.1269 36.3671 30.6627V34.0092C36.3671 34.5449 36.0814 35.0399 35.6176 35.3079L32.7509 36.9644C32.2866 37.2327 31.7143 37.2327 31.25 36.9644L28.3833 35.3079C27.9195 35.0399 27.6338 34.5449 27.6338 34.0092V30.6627C27.6338 30.1269 27.9195 29.6319 28.3833 29.3639L31.25 27.7075Z" fill="#87878C"/>
<path d="M31.8662 31.4026C31.9505 31.3606 32.0495 31.3606 32.1338 31.4026L32.8338 31.7513C32.9356 31.8021 33 31.906 33 32.0198V32.652C33 32.7658 32.9356 32.8698 32.8338 32.9205L32.1338 33.2693C32.0495 33.3112 31.9505 33.3112 31.8662 33.2693L31.1662 32.9205C31.0644 32.8698 31 32.7658 31 32.652V32.0198C31 31.906 31.0644 31.8021 31.1662 31.7513L31.5 31.585L31.8662 31.4026Z" fill="#87878C"/>
<path fill-rule="evenodd" clip-rule="evenodd" d="M32.2445 24.0461C32.0926 23.961 31.9074 23.961 31.7555 24.0461L24.7555 27.9694C24.5977 28.0579 24.5 28.2247 24.5 28.4056V36.2662C24.5 36.4471 24.5977 36.6139 24.7555 36.7024L31.7555 40.6257C31.9074 40.7108 32.0926 40.7108 32.2445 40.6257L39.2445 36.7024C39.4023 36.6139 39.5 36.4471 39.5 36.2662V28.4056C39.5 28.2247 39.4023 28.0579 39.2445 27.9694L32.2445 24.0461ZM31.2666 23.1738C31.7222 22.9184 32.2778 22.9184 32.7334 23.1738L39.7334 27.0971C40.2068 27.3625 40.5 27.8629 40.5 28.4056V36.2662C40.5 36.809 40.2068 37.3094 39.7334 37.5747L32.7334 41.4981C32.2778 41.7534 31.7222 41.7534 31.2666 41.4981L24.2666 37.5747C23.7932 37.3094 23.5 36.809 23.5 36.2662V28.4056C23.5 27.8629 23.7932 27.3625 24.2666 27.0971L31.2666 23.1738Z" fill="#87878C"/>
</svg>
