<svg width="64" height="64" viewBox="0 0 64 64" fill="none" xmlns="http://www.w3.org/2000/svg">
<path d="M29.9429 1.56952C31.2092 0.810159 32.7909 0.810159 34.0572 1.56952L39.9132 5.08115C40.4323 5.39244 41.0153 5.58186 41.6182 5.63514L48.4199 6.23623C49.8907 6.36621 51.1703 7.29588 51.7484 8.65454L54.4219 14.9376C54.6589 15.4945 55.0192 15.9904 55.4756 16.3879L60.625 20.8721C61.7385 21.8418 62.2272 23.3461 61.8964 24.785L60.3662 31.4395C60.2306 32.0294 60.2306 32.6424 60.3662 33.2323L61.8964 39.8868C62.2272 41.3258 61.7385 42.83 60.625 43.7997L55.4756 48.2839C55.0192 48.6814 54.6589 49.1773 54.4219 49.7343L51.7484 56.0173C51.1703 57.376 49.8907 58.3056 48.4199 58.4356L41.6182 59.0367C41.0153 59.09 40.4323 59.2794 39.9132 59.5907L34.0572 63.1023C32.7909 63.8617 31.2092 63.8617 29.9429 63.1023L24.087 59.5907C23.5679 59.2794 22.9849 59.09 22.382 59.0367L15.5803 58.4356C14.1095 58.3056 12.8299 57.376 12.2518 56.0173L9.57829 49.7343C9.3413 49.1773 8.98099 48.6814 8.52453 48.2839L3.37518 43.7997C2.26167 42.83 1.77291 41.3258 2.1038 39.8868L3.63396 33.2323C3.7696 32.6424 3.7696 32.0294 3.63396 31.4395L2.1038 24.785C1.77291 23.3461 2.26167 21.8418 3.37518 20.8721L8.52453 16.3879C8.98099 15.9904 9.3413 15.4945 9.57829 14.9376L12.2518 8.65454C12.8299 7.29588 14.1095 6.36621 15.5803 6.23623L22.382 5.63514C22.9849 5.58186 23.5679 5.39244 24.087 5.08115L29.9429 1.56952Z" fill="#C3C3C5"/>
<path fill-rule="evenodd" clip-rule="evenodd" d="M39.3989 5.93877L33.5429 2.42714C32.5932 1.85762 31.407 1.85762 30.4572 2.42714L24.6013 5.93877C23.9524 6.32788 23.2237 6.56465 22.47 6.63126L15.6683 7.23234C14.5652 7.32983 13.6055 8.02709 13.1719 9.04608L10.4985 15.3291C10.2022 16.0253 9.75183 16.6452 9.18125 17.1421L4.0319 21.6263C3.19677 22.3535 2.8302 23.4817 3.07837 24.5609L4.60853 31.2154C4.77808 31.9528 4.77808 32.719 4.60853 33.4564L3.07837 40.1109C2.8302 41.1901 3.19677 42.3183 4.0319 43.0456L9.18125 47.5298C9.75183 48.0267 10.2022 48.6466 10.4984 49.3428L13.1719 55.6258C13.6055 56.6448 14.5652 57.342 15.6683 57.4395L22.47 58.0406C23.2237 58.1072 23.9524 58.344 24.6013 58.7331L30.4572 62.2447C31.407 62.8142 32.5932 62.8142 33.5429 62.2447L39.3989 58.7331C40.0478 58.344 40.7765 58.1072 41.5302 58.0406L48.3318 57.4395C49.4349 57.342 50.3946 56.6448 50.8282 55.6258L53.5017 49.3428C53.798 48.6466 54.2483 48.0267 54.8189 47.5298L59.9683 43.0456C60.8034 42.3183 61.17 41.1901 60.9218 40.1109L59.3916 33.4564C59.2221 32.719 59.2221 31.9528 59.3916 31.2155L60.9218 24.5609C61.17 23.4817 60.8034 22.3535 59.9683 21.6263L54.8189 17.1421C54.2483 16.6452 53.798 16.0253 53.5017 15.3291L50.8282 9.04608C50.3946 8.02709 49.4349 7.32983 48.3318 7.23234L41.5302 6.63126C40.7765 6.56465 40.0478 6.32788 39.3989 5.93877ZM34.0572 1.56952C32.7909 0.810159 31.2092 0.810159 29.9429 1.56952L24.087 5.08115C23.5679 5.39244 22.9849 5.58186 22.382 5.63514L15.5803 6.23623C14.1095 6.36621 12.8299 7.29588 12.2518 8.65454L9.57829 14.9376C9.3413 15.4945 8.98099 15.9904 8.52453 16.3879L3.37518 20.8721C2.26167 21.8418 1.77291 23.3461 2.1038 24.785L3.63396 31.4395C3.7696 32.0294 3.7696 32.6424 3.63396 33.2323L2.1038 39.8868C1.77291 41.3258 2.26167 42.83 3.37518 43.7997L8.52453 48.2839C8.98099 48.6814 9.3413 49.1773 9.57829 49.7343L12.2518 56.0173C12.8299 57.376 14.1095 58.3056 15.5803 58.4356L22.382 59.0367C22.9849 59.09 23.5679 59.2794 24.087 59.5907L29.9429 63.1023C31.2092 63.8617 32.7909 63.8617 34.0572 63.1023L39.9132 59.5907C40.4323 59.2794 41.0153 59.09 41.6182 59.0367L48.4199 58.4356C49.8907 58.3056 51.1703 57.376 51.7484 56.0173L54.4219 49.7343C54.6589 49.1773 55.0192 48.6814 55.4756 48.2839L60.625 43.7997C61.7385 42.83 62.2272 41.3258 61.8964 39.8868L60.3662 33.2323C60.2306 32.6424 60.2306 32.0294 60.3662 31.4395L61.8964 24.785C62.2272 23.3461 61.7385 21.8418 60.625 20.8721L55.4756 16.3879C55.0192 15.9904 54.6589 15.4945 54.4219 14.9376L51.7484 8.65454C51.1703 7.29588 49.8907 6.36621 48.4199 6.23623L41.6182 5.63514C41.0153 5.58186 40.4323 5.39244 39.9132 5.08115L34.0572 1.56952Z" fill="#87878C"/>
<path fill-rule="evenodd" clip-rule="evenodd" d="M19.333 24.0026C19.333 22.5298 20.5269 21.3359 21.9997 21.3359H43.333C44.8058 21.3359 45.9997 22.5298 45.9997 24.0026V29.8569C47.9061 31.1075 49.165 33.2637 49.165 35.7141C49.165 38.1644 47.9061 40.3206 45.9997 41.5712V46.3931C45.9997 46.9871 45.2816 47.2845 44.8616 46.8645L42.4711 44.474C42.2107 44.2137 41.7886 44.2137 41.5283 44.474L39.1377 46.8645C38.7178 47.2845 37.9997 46.9871 37.9997 46.3931V41.3404C37.9977 41.3389 37.9957 41.3374 37.9936 41.3359H21.9997C20.5269 41.3359 19.333 40.142 19.333 38.6693V24.0026ZM45.4922 35.7141C45.4922 37.5516 44.0026 39.0412 42.165 39.0412C40.3275 39.0412 38.8379 37.5516 38.8379 35.7141C38.8379 33.8765 40.3275 32.3869 42.165 32.3869C44.0026 32.3869 45.4922 33.8765 45.4922 35.7141Z" fill="#EAEAEB"/>
<path fill-rule="evenodd" clip-rule="evenodd" d="M42.165 39.26C44.1234 39.26 45.7109 37.6725 45.7109 35.7141C45.7109 33.7558 44.1234 32.1682 42.165 32.1682C40.2067 32.1682 38.6191 33.7558 38.6191 35.7141C38.6191 37.6725 40.2067 39.26 42.165 39.26ZM42.165 38.26C43.5711 38.26 44.7109 37.1202 44.7109 35.7141C44.7109 34.3081 43.5711 33.1682 42.165 33.1682C40.759 33.1682 39.6191 34.3081 39.6191 35.7141C39.6191 37.1202 40.759 38.26 42.165 38.26Z" fill="#87878C"/>
<path fill-rule="evenodd" clip-rule="evenodd" d="M18.833 24.0026C18.833 22.2537 20.2508 20.8359 21.9997 20.8359H43.333C45.0819 20.8359 46.4997 22.2537 46.4997 24.0026V30.2172C48.1231 31.4992 49.165 33.4849 49.165 35.7141C49.165 37.9432 48.1231 39.9289 46.4997 41.2109V46.3931C46.4997 47.4325 45.243 47.953 44.508 47.2181L42.1175 44.8276C42.0524 44.7625 41.9469 44.7625 41.8818 44.8276L39.4913 47.2181C38.7563 47.953 37.4997 47.4325 37.4997 46.3931V41.8359H21.9997C20.2508 41.8359 18.833 40.4182 18.833 38.6693V24.0026ZM45.4997 41.8703C45.4972 41.8716 45.4947 41.873 45.4922 41.8743V40.7078C47.1036 39.632 48.165 37.797 48.165 35.7141C48.165 32.4003 45.4787 29.7141 42.165 29.7141C38.8513 29.7141 36.165 32.4003 36.165 35.7141C36.165 37.6499 37.0818 39.3716 38.5049 40.4687V41.6821C38.5031 41.681 38.5014 41.6799 38.4997 41.6789V46.3931C38.4997 46.5416 38.6792 46.616 38.7842 46.511L41.1747 44.1205C41.6303 43.6648 42.369 43.6648 42.8246 44.1205L45.2152 46.511C45.3202 46.616 45.4997 46.5416 45.4997 46.3931V41.8703ZM37.3936 40.8359C36.0225 39.5581 35.165 37.7362 35.165 35.7141C35.165 31.8481 38.299 28.7141 42.165 28.7141C43.3724 28.7141 44.5083 29.0197 45.4997 29.5578V24.0026C45.4997 22.806 44.5296 21.8359 43.333 21.8359H21.9997C20.8031 21.8359 19.833 22.806 19.833 24.0026V38.6693C19.833 39.8659 20.8031 40.8359 21.9997 40.8359H37.3936Z" fill="#87878C"/>
<path fill-rule="evenodd" clip-rule="evenodd" d="M24.5 27.8359C24.5 27.5598 24.7239 27.3359 25 27.3359H35C35.2761 27.3359 35.5 27.5598 35.5 27.8359C35.5 28.1121 35.2761 28.3359 35 28.3359H25C24.7239 28.3359 24.5 28.1121 24.5 27.8359ZM24.5 33.3359C24.5 33.0598 24.7239 32.8359 25 32.8359H31C31.2761 32.8359 31.5 33.0598 31.5 33.3359C31.5 33.6121 31.2761 33.8359 31 33.8359H25C24.7239 33.8359 24.5 33.6121 24.5 33.3359Z" fill="#87878C"/>
</svg>
