<svg width="80" height="80" viewBox="0 0 80 80" fill="none" xmlns="http://www.w3.org/2000/svg">
<path d="M35.363 7.30009C38.1395 5.32457 41.8626 5.32462 44.639 7.30022L69.8681 25.2522C72.7222 27.2831 73.9232 30.9344 72.8318 34.2629L63.1391 63.8258C62.0618 67.1116 58.9952 69.3333 55.5373 69.3333H24.4627C21.0048 69.3333 17.9382 67.1116 16.8609 63.8258L7.16822 34.2631C6.07688 30.9345 7.27794 27.2831 10.1321 25.2523L35.363 7.30009Z" fill="#FFD2E8"/>
<path fill-rule="evenodd" clip-rule="evenodd" d="M24.4627 69.3334H55.5373C57.2166 69.3334 58.8037 68.8093 60.1154 67.8939L54 60.6667H26L19.8846 67.8939C21.1963 68.8093 22.7834 69.3334 24.4627 69.3334Z" fill="#EB9AC1"/>
<path fill-rule="evenodd" clip-rule="evenodd" d="M7.1462 29.3465L16 32.6667L40 15.3333V5.81848C38.3755 5.81867 36.7509 6.31254 35.363 7.30009L10.1321 25.2523C8.68239 26.2838 7.65916 27.7334 7.1462 29.3465Z" fill="#FFF0F6"/>
<path fill-rule="evenodd" clip-rule="evenodd" d="M44.5633 7.24697C43.1916 6.29446 41.5958 5.8183 40 5.81848V15.3333L64 32.6667L72.8539 29.3465C72.3445 27.7446 71.332 26.3038 69.8982 25.2737L44.5633 7.24697Z" fill="#FFD2E8"/>
<path fill-rule="evenodd" clip-rule="evenodd" d="M63.1228 63.8748C62.564 65.5431 61.4911 66.9338 60.1154 67.8939L54 60.6666L64.0005 32.6664L72.8537 29.3456C73.3383 30.8692 73.3677 32.5385 72.8713 34.1391L63.1228 63.8748Z" fill="#FFB8DA"/>
<path d="M40.0004 15.3333L64 32.6666L54 60.6666H26L16 32.6666L40.0004 15.3333Z" fill="#FFE0EF"/>
<path fill-rule="evenodd" clip-rule="evenodd" d="M20.8177 46.1546L47.7888 20.9583L64.0007 32.6671L63.7451 33.3828L34.539 60.6671H26.0007L20.8177 46.1546Z" fill="white" fill-opacity="0.32"/>
</svg>
