<svg width="64" height="64" viewBox="0 0 64 64" fill="none" xmlns="http://www.w3.org/2000/svg">
<path d="M29.9429 1.56952C31.2092 0.810159 32.7909 0.810159 34.0572 1.56952L39.9132 5.08115C40.4323 5.39244 41.0153 5.58186 41.6182 5.63514L48.4199 6.23623C49.8907 6.36621 51.1702 7.29588 51.7484 8.65454L54.4219 14.9376C54.6589 15.4945 55.0192 15.9904 55.4756 16.3879L60.625 20.8721C61.7385 21.8418 62.2272 23.3461 61.8964 24.785L60.3662 31.4395C60.2305 32.0294 60.2305 32.6424 60.3662 33.2323L61.8964 39.8868C62.2272 41.3258 61.7385 42.83 60.625 43.7997L55.4756 48.2839C55.0192 48.6814 54.6589 49.1773 54.4219 49.7343L51.7484 56.0173C51.1702 57.376 49.8907 58.3056 48.4199 58.4356L41.6182 59.0367C41.0153 59.09 40.4323 59.2794 39.9132 59.5907L34.0572 63.1023C32.7909 63.8617 31.2092 63.8617 29.9429 63.1023L24.087 59.5907C23.5679 59.2794 22.9849 59.09 22.382 59.0367L15.5803 58.4356C14.1095 58.3056 12.8299 57.376 12.2518 56.0173L9.57829 49.7343C9.3413 49.1773 8.98099 48.6814 8.52453 48.2839L3.37518 43.7997C2.26167 42.83 1.77291 41.3258 2.1038 39.8868L3.63396 33.2323C3.7696 32.6424 3.7696 32.0294 3.63396 31.4395L2.1038 24.785C1.77291 23.3461 2.26167 21.8418 3.37518 20.8721L8.52453 16.3879C8.98099 15.9904 9.3413 15.4945 9.57829 14.9376L12.2518 8.65454C12.8299 7.29588 14.1095 6.36621 15.5803 6.23623L22.382 5.63514C22.9849 5.58186 23.5679 5.39244 24.087 5.08115L29.9429 1.56952Z" fill="#C3C3C5"/>
<path fill-rule="evenodd" clip-rule="evenodd" d="M39.3989 5.93877L33.5429 2.42714C32.5932 1.85762 31.407 1.85762 30.4572 2.42714L24.6013 5.93877C23.9524 6.32788 23.2237 6.56465 22.47 6.63126L15.6683 7.23234C14.5652 7.32983 13.6055 8.02709 13.1719 9.04608L10.4985 15.3291C10.2022 16.0253 9.75183 16.6452 9.18125 17.1421L4.0319 21.6263C3.19677 22.3535 2.8302 23.4817 3.07837 24.5609L4.60853 31.2154C4.77808 31.9528 4.77808 32.719 4.60853 33.4564L3.07837 40.1109C2.8302 41.1901 3.19677 42.3183 4.0319 43.0456L9.18125 47.5298C9.75183 48.0267 10.2022 48.6466 10.4984 49.3428L13.1719 55.6258C13.6055 56.6448 14.5652 57.342 15.6683 57.4395L22.47 58.0406C23.2237 58.1072 23.9524 58.344 24.6013 58.7331L30.4572 62.2447C31.407 62.8142 32.5932 62.8142 33.5429 62.2447L39.3989 58.7331C40.0478 58.344 40.7765 58.1072 41.5302 58.0406L48.3318 57.4395C49.4349 57.342 50.3946 56.6448 50.8282 55.6258L53.5017 49.3428C53.798 48.6466 54.2483 48.0267 54.8189 47.5298L59.9683 43.0456C60.8034 42.3183 61.17 41.1901 60.9218 40.1109L59.3916 33.4564C59.2221 32.719 59.2221 31.9528 59.3916 31.2155L60.9218 24.5609C61.17 23.4817 60.8034 22.3535 59.9683 21.6263L54.8189 17.1421C54.2483 16.6452 53.798 16.0253 53.5017 15.3291L50.8282 9.04608C50.3946 8.02709 49.4349 7.32983 48.3318 7.23234L41.5302 6.63126C40.7765 6.56465 40.0478 6.32788 39.3989 5.93877ZM34.0572 1.56952C32.7909 0.810159 31.2092 0.810159 29.9429 1.56952L24.087 5.08115C23.5679 5.39244 22.9849 5.58186 22.382 5.63514L15.5803 6.23623C14.1095 6.36621 12.8299 7.29588 12.2518 8.65454L9.57829 14.9376C9.3413 15.4945 8.98099 15.9904 8.52453 16.3879L3.37518 20.8721C2.26167 21.8418 1.77291 23.3461 2.1038 24.785L3.63396 31.4395C3.7696 32.0294 3.7696 32.6424 3.63396 33.2323L2.1038 39.8868C1.77291 41.3258 2.26167 42.83 3.37518 43.7997L8.52453 48.2839C8.98099 48.6814 9.3413 49.1773 9.57829 49.7343L12.2518 56.0173C12.8299 57.376 14.1095 58.3056 15.5803 58.4356L22.382 59.0367C22.9849 59.09 23.5679 59.2794 24.087 59.5907L29.9429 63.1023C31.2092 63.8617 32.7909 63.8617 34.0572 63.1023L39.9132 59.5907C40.4323 59.2794 41.0153 59.09 41.6182 59.0367L48.4199 58.4356C49.8907 58.3056 51.1703 57.376 51.7484 56.0173L54.4219 49.7343C54.6589 49.1773 55.0192 48.6814 55.4756 48.2839L60.625 43.7997C61.7385 42.83 62.2272 41.3258 61.8964 39.8868L60.3662 33.2323C60.2306 32.6424 60.2306 32.0294 60.3662 31.4395L61.8964 24.785C62.2272 23.3461 61.7385 21.8418 60.625 20.8721L55.4756 16.3879C55.0192 15.9904 54.6589 15.4945 54.4219 14.9376L51.7484 8.65454C51.1703 7.29588 49.8907 6.36621 48.4199 6.23623L41.6182 5.63514C41.0153 5.58186 40.4323 5.39244 39.9132 5.08115L34.0572 1.56952Z" fill="#87878C"/>
<path d="M31.2388 18.1969C31.696 17.8797 32.302 17.8797 32.7592 18.1969L35.5578 20.139C35.7729 20.2883 36.0273 20.371 36.2891 20.3767L39.6948 20.4504C40.2511 20.4625 40.7414 20.8187 40.9248 21.3441L42.0473 24.5603C42.1336 24.8075 42.2908 25.0239 42.4993 25.1824L45.2112 27.2439C45.6542 27.5806 45.8415 28.157 45.681 28.6898L44.6988 31.9516C44.6233 32.2023 44.6233 32.4698 44.6988 32.7205L45.681 35.9823C45.8415 36.5151 45.6542 37.0915 45.2112 37.4283L42.4993 39.4898C42.2908 39.6482 42.1336 39.8646 42.0473 40.1118L40.9248 43.328C40.7414 43.8534 40.2511 44.2096 39.6948 44.2217L36.2891 44.2955C36.0273 44.3011 35.7729 44.3838 35.5578 44.5331L32.7592 46.4752C32.302 46.7924 31.696 46.7924 31.2388 46.4752L28.4402 44.5331C28.225 44.3838 27.9707 44.3011 27.7089 44.2955L24.3032 44.2217C23.7469 44.2096 23.2566 43.8534 23.0732 43.328L21.9506 40.1118C21.8643 39.8646 21.7071 39.6482 21.4987 39.4898L18.7868 37.4283C18.3438 37.0915 18.1565 36.5151 18.317 35.9823L19.2992 32.7205C19.3747 32.4698 19.3747 32.2023 19.2992 31.9516L18.317 28.6898C18.1565 28.157 18.3438 27.5806 18.7868 27.2439L21.4987 25.1824C21.7071 25.0239 21.8643 24.8075 21.9506 24.5603L23.0732 21.3441C23.2566 20.8187 23.7469 20.4625 24.3032 20.4504L27.7089 20.3767C27.9707 20.371 28.225 20.2883 28.4402 20.139L31.2388 18.1969Z" fill="#EAEAEB"/>
<path fill-rule="evenodd" clip-rule="evenodd" d="M30.9538 17.7861C31.5823 17.3499 32.4157 17.3499 33.0442 17.7861L35.8429 19.7283C35.9773 19.8216 36.1363 19.8732 36.2999 19.8768L39.7056 19.9506C40.4705 19.9671 41.1447 20.4569 41.3969 21.1793L42.5194 24.3955C42.5734 24.55 42.6716 24.6853 42.8019 24.7843L45.5138 26.8458C46.1229 27.3088 46.3804 28.1014 46.1598 28.834L45.1776 32.0958C45.1304 32.2525 45.1304 32.4196 45.1776 32.5763L46.1598 35.8382C46.3804 36.5707 46.1229 37.3633 45.5138 37.8263L42.8019 39.8878C42.6716 39.9869 42.5734 40.1221 42.5194 40.2766L41.3969 43.4928C41.1447 44.2152 40.4705 44.705 39.7056 44.7216L36.2999 44.7953C36.1363 44.7989 35.9773 44.8505 35.8429 44.9438L33.0442 46.886C32.4157 47.3222 31.5823 47.3222 30.9538 46.886L28.1552 44.9438C28.0207 44.8505 27.8617 44.7989 27.6981 44.7953L24.2924 44.7216C23.5275 44.705 22.8533 44.2152 22.6012 43.4928L21.4786 40.2766C21.4247 40.1221 21.3264 39.9869 21.1961 39.8878L18.4842 37.8263C17.8751 37.3633 17.6176 36.5707 17.8382 35.8382L18.8205 32.5763C18.8677 32.4196 18.8677 32.2525 18.8205 32.0958L17.8382 28.834C17.6176 28.1014 17.8751 27.3088 18.4842 26.8458L21.1961 24.7843C21.3264 24.6853 21.4247 24.55 21.4786 24.3955L22.6012 21.1793C22.8533 20.457 23.5275 19.9671 24.2924 19.9506L27.6981 19.8768C27.8617 19.8732 28.0207 19.8216 28.1552 19.7283L30.9538 17.7861ZM32.4741 18.6077C32.1884 18.4094 31.8096 18.4094 31.5239 18.6077L28.7253 20.5498C28.4295 20.7551 28.0797 20.8687 27.7198 20.8765L24.3141 20.9503C23.9664 20.9579 23.6599 21.1805 23.5453 21.5088L22.4227 24.7251C22.3041 25.065 22.0879 25.3625 21.8013 25.5804L19.0894 27.6419C18.8125 27.8524 18.6955 28.2126 18.7958 28.5456L19.778 31.8074C19.8818 32.1522 19.8818 32.5199 19.778 32.8647L18.7958 36.1265C18.6955 36.4595 18.8125 36.8198 19.0894 37.0302L21.8013 39.0917C22.0879 39.3096 22.3041 39.6071 22.4227 39.9471L23.5453 43.1633C23.6599 43.4916 23.9664 43.7143 24.3141 43.7218L27.7198 43.7956C28.0797 43.8034 28.4295 43.917 28.7253 44.1223L31.5239 46.0644C31.8096 46.2627 32.1884 46.2627 32.4741 46.0644L35.2728 44.1223C35.5686 43.917 35.9183 43.8034 36.2783 43.7956L39.684 43.7218C40.0317 43.7143 40.3381 43.4916 40.4527 43.1633L41.5753 39.9471C41.694 39.6071 41.9101 39.3096 42.1967 39.0917L44.9086 37.0302C45.1855 36.8198 45.3026 36.4595 45.2023 36.1265L44.22 32.8647C44.1162 32.5199 44.1162 32.1522 44.22 31.8074L45.2023 28.5456C45.3026 28.2126 45.1855 27.8524 44.9086 27.6419L42.1967 25.5804C41.9101 25.3625 41.694 25.065 41.5753 24.7251L40.4527 21.5088C40.3381 21.1805 40.0317 20.9579 39.684 20.9503L36.2783 20.8765C35.9183 20.8687 35.5686 20.7551 35.2728 20.5498L32.4741 18.6077Z" fill="#87878C"/>
<path fill-rule="evenodd" clip-rule="evenodd" d="M39.1518 27.5917C39.4252 27.8651 39.4252 28.3083 39.1518 28.5816L30.7511 36.9824C30.3236 37.4099 29.6221 37.3807 29.2316 36.9192L24.8097 31.8728C24.56 31.5777 24.5968 31.136 24.8919 30.8863C25.187 30.6366 25.6287 30.6734 25.8784 30.9685L30.0429 35.7107L38.1619 27.5917C38.4352 27.3183 38.8785 27.3183 39.1518 27.5917Z" fill="#87878C"/>
</svg>
