<svg width="64" height="64" viewBox="0 0 64 64" fill="none" xmlns="http://www.w3.org/2000/svg">
<path d="M29.9429 1.56952C31.2092 0.810159 32.7909 0.810159 34.0572 1.56952L39.9132 5.08115C40.4323 5.39244 41.0153 5.58186 41.6182 5.63514L48.4199 6.23623C49.8907 6.36621 51.1703 7.29588 51.7484 8.65454L54.4219 14.9376C54.6589 15.4945 55.0192 15.9904 55.4756 16.3879L60.625 20.8721C61.7385 21.8418 62.2272 23.3461 61.8964 24.785L60.3662 31.4395C60.2306 32.0294 60.2306 32.6424 60.3662 33.2323L61.8964 39.8868C62.2272 41.3258 61.7385 42.83 60.625 43.7997L55.4756 48.2839C55.0192 48.6814 54.6589 49.1773 54.4219 49.7343L51.7484 56.0173C51.1703 57.376 49.8907 58.3056 48.4199 58.4356L41.6182 59.0367C41.0153 59.09 40.4323 59.2794 39.9132 59.5907L34.0572 63.1023C32.7909 63.8617 31.2092 63.8617 29.9429 63.1023L24.087 59.5907C23.5679 59.2794 22.9849 59.09 22.382 59.0367L15.5803 58.4356C14.1095 58.3056 12.8299 57.376 12.2518 56.0173L9.57829 49.7343C9.3413 49.1773 8.98099 48.6814 8.52453 48.2839L3.37518 43.7997C2.26167 42.83 1.77291 41.3258 2.1038 39.8868L3.63396 33.2323C3.7696 32.6424 3.7696 32.0294 3.63396 31.4395L2.1038 24.785C1.77291 23.3461 2.26167 21.8418 3.37518 20.8721L8.52453 16.3879C8.98099 15.9904 9.3413 15.4945 9.57829 14.9376L12.2518 8.65454C12.8299 7.29588 14.1095 6.36621 15.5803 6.23623L22.382 5.63514C22.9849 5.58186 23.5679 5.39244 24.087 5.08115L29.9429 1.56952Z" fill="#C3C3C5"/>
<path fill-rule="evenodd" clip-rule="evenodd" d="M39.3989 5.93877L33.5429 2.42714C32.5932 1.85762 31.407 1.85762 30.4572 2.42714L24.6013 5.93877C23.9524 6.32788 23.2237 6.56465 22.47 6.63126L15.6683 7.23234C14.5652 7.32983 13.6055 8.02709 13.1719 9.04608L10.4985 15.3291C10.2022 16.0253 9.75183 16.6452 9.18125 17.1421L4.0319 21.6263C3.19677 22.3535 2.8302 23.4817 3.07837 24.5609L4.60853 31.2154C4.77808 31.9528 4.77808 32.719 4.60853 33.4564L3.07837 40.1109C2.8302 41.1901 3.19677 42.3183 4.0319 43.0456L9.18125 47.5298C9.75183 48.0267 10.2022 48.6466 10.4984 49.3428L13.1719 55.6258C13.6055 56.6448 14.5652 57.342 15.6683 57.4395L22.47 58.0406C23.2237 58.1072 23.9524 58.344 24.6013 58.7331L30.4572 62.2447C31.407 62.8142 32.5932 62.8142 33.5429 62.2447L39.3989 58.7331C40.0478 58.344 40.7765 58.1072 41.5302 58.0406L48.3318 57.4395C49.4349 57.342 50.3946 56.6448 50.8282 55.6258L53.5017 49.3428C53.798 48.6466 54.2483 48.0267 54.8189 47.5298L59.9683 43.0456C60.8034 42.3183 61.17 41.1901 60.9218 40.1109L59.3916 33.4564C59.2221 32.719 59.2221 31.9528 59.3916 31.2155L60.9218 24.5609C61.17 23.4817 60.8034 22.3535 59.9683 21.6263L54.8189 17.1421C54.2483 16.6452 53.798 16.0253 53.5017 15.3291L50.8282 9.04608C50.3946 8.02709 49.4349 7.32983 48.3318 7.23234L41.5302 6.63126C40.7765 6.56465 40.0478 6.32788 39.3989 5.93877ZM34.0572 1.56952C32.7909 0.810159 31.2092 0.810159 29.9429 1.56952L24.087 5.08115C23.5679 5.39244 22.9849 5.58186 22.382 5.63514L15.5803 6.23623C14.1095 6.36621 12.8299 7.29588 12.2518 8.65454L9.57829 14.9376C9.3413 15.4945 8.98099 15.9904 8.52453 16.3879L3.37518 20.8721C2.26167 21.8418 1.77291 23.3461 2.1038 24.785L3.63396 31.4395C3.7696 32.0294 3.7696 32.6424 3.63396 33.2323L2.1038 39.8868C1.77291 41.3258 2.26167 42.83 3.37518 43.7997L8.52453 48.2839C8.98099 48.6814 9.3413 49.1773 9.57829 49.7343L12.2518 56.0173C12.8299 57.376 14.1095 58.3056 15.5803 58.4356L22.382 59.0367C22.9849 59.09 23.5679 59.2794 24.087 59.5907L29.9429 63.1023C31.2092 63.8617 32.7909 63.8617 34.0572 63.1023L39.9132 59.5907C40.4323 59.2794 41.0153 59.09 41.6182 59.0367L48.4199 58.4356C49.8907 58.3056 51.1703 57.376 51.7484 56.0173L54.4219 49.7343C54.6589 49.1773 55.0192 48.6814 55.4756 48.2839L60.625 43.7997C61.7385 42.83 62.2272 41.3258 61.8964 39.8868L60.3662 33.2323C60.2306 32.6424 60.2306 32.0294 60.3662 31.4395L61.8964 24.785C62.2272 23.3461 61.7385 21.8418 60.625 20.8721L55.4756 16.3879C55.0192 15.9904 54.6589 15.4945 54.4219 14.9376L51.7484 8.65454C51.1703 7.29588 49.8907 6.36621 48.4199 6.23623L41.6182 5.63514C41.0153 5.58186 40.4323 5.39244 39.9132 5.08115L34.0572 1.56952Z" fill="#87878C"/>
<path d="M33.3 25.9138C33.9437 25.6865 34.5099 25.2942 34.9491 24.789C35.542 24.1047 35.9 23.2122 35.9 22.2359C35.9 20.0815 34.1544 18.3359 32 18.3359C29.8456 18.3359 28.1 20.0815 28.1 22.2359C28.1 23.9346 29.1854 25.378 30.7 25.9138V32.6359C30.7 33.3545 31.2814 33.9359 32 33.9359C32.3897 33.9359 32.7389 33.7658 32.9763 33.4954C33.1781 33.2656 33.3 32.9647 33.3 32.6359V25.9138Z" fill="#EAEAEB"/>
<path d="M24.5199 28.7359C23.4814 28.7359 22.5433 29.3529 22.1319 30.3063L19.2133 37.0742L19.16 37.2088L19.1143 37.3421C19.0978 37.3954 19.0825 37.45 19.0711 37.5046L19.0533 37.5808C19.0178 37.7521 19 37.9273 19 38.1038V41.7359C19 43.1718 20.1642 44.3359 21.6 44.3359H42.4C43.8358 44.3359 45 43.1718 45 41.7359V38.1038C45 37.7496 44.9276 37.3992 44.7867 37.0742L41.8681 30.3063C41.4567 29.3529 40.5186 28.7359 39.4801 28.7359H37.4679C37.1264 28.7359 36.8153 28.868 36.583 29.0825C36.3278 29.3199 36.1679 29.6589 36.1679 30.0359C36.1679 30.4676 36.3773 30.8497 36.7011 31.0858C36.8217 31.1734 36.9575 31.242 37.1048 31.2852C37.2203 31.3182 37.3422 31.3359 37.4679 31.3359H39.4801L41.7233 36.5359H22.2767L24.5199 31.3359H26.5321C27.2507 31.3359 27.8321 30.7545 27.8321 30.0359C27.8321 29.3174 27.2507 28.7359 26.5321 28.7359H24.5199Z" fill="#EAEAEB"/>
<path fill-rule="evenodd" clip-rule="evenodd" d="M35.7049 25.4438L35.7038 25.4451C35.3106 25.8973 34.8354 26.2783 34.3 26.5633V32.6359C34.3 33.2165 34.0838 33.7499 33.7276 34.1554C33.3067 34.6346 32.687 34.9359 32 34.9359C30.7292 34.9359 29.7 33.9068 29.7 32.6359V26.563C28.1544 25.7398 27.1 24.1129 27.1 22.2359C27.1 19.5293 29.2933 17.3359 32 17.3359C34.7067 17.3359 36.9 19.5293 36.9 22.2359C36.9 23.4613 36.4496 24.5843 35.7049 25.4438ZM30.7 25.9138C29.1854 25.378 28.1 23.9346 28.1 22.2359C28.1 20.0815 29.8456 18.3359 32 18.3359C34.1544 18.3359 35.9 20.0815 35.9 22.2359C35.9 23.2122 35.542 24.1047 34.9491 24.789C34.5099 25.2942 33.9437 25.6865 33.3 25.9138V32.6359C33.3 32.9647 33.1781 33.2656 32.9763 33.4954C32.7389 33.7658 32.3897 33.9359 32 33.9359C31.2814 33.9359 30.7 33.3545 30.7 32.6359V25.9138ZM21.2137 29.9102C21.7832 28.5903 23.0823 27.7359 24.5199 27.7359H26.5321C27.803 27.7359 28.8321 28.7651 28.8321 30.0359C28.8321 31.3068 27.803 32.3359 26.5321 32.3359H25.1776L23.7971 35.5359H40.2029L38.8224 32.3359H37.4679C37.2476 32.3359 37.0333 32.3047 36.8301 32.2467L36.8235 32.2448C36.5609 32.1678 36.3221 32.0465 36.1134 31.8949L36.1118 31.8938C35.5399 31.4766 35.1679 30.7991 35.1679 30.0359C35.1679 29.3697 35.4519 28.769 35.9019 28.3504L35.9046 28.3479C36.3133 27.9704 36.8638 27.7359 37.4679 27.7359H39.4801C40.9177 27.7359 42.2168 28.5903 42.7863 29.9102L45.7042 36.6764C45.7044 36.6768 45.7045 36.6772 45.7047 36.6776C45.9 37.1284 46 37.6138 46 38.1038V41.7359C46 43.7241 44.3881 45.3359 42.4 45.3359H21.6C19.6119 45.3359 18 43.7241 18 41.7359V38.1038C18 37.8602 18.0245 37.6169 18.0742 37.3777L18.0767 37.3656L18.095 37.2869C18.1147 37.1956 18.1383 37.1131 18.159 37.0464L18.1634 37.032L18.2216 36.8623L18.2891 36.692L21.2137 29.9102ZM19.0711 37.5046L19.0533 37.5808C19.0178 37.7521 19 37.9273 19 38.1038V41.7359C19 43.1718 20.1642 44.3359 21.6 44.3359H42.4C43.8358 44.3359 45 43.1718 45 41.7359V38.1038C45 37.7496 44.9276 37.3992 44.7867 37.0742L41.8681 30.3063C41.4567 29.3529 40.5186 28.7359 39.4801 28.7359H37.4679C37.1264 28.7359 36.8153 28.868 36.583 29.0825C36.3278 29.3199 36.1679 29.6589 36.1679 30.0359C36.1679 30.4676 36.3773 30.8497 36.7011 31.0858C36.8217 31.1734 36.9575 31.242 37.1048 31.2852C37.2203 31.3182 37.3422 31.3359 37.4679 31.3359H39.4801L41.7233 36.5359H22.2767L24.5199 31.3359H26.5321C27.2507 31.3359 27.8321 30.7545 27.8321 30.0359C27.8321 29.3174 27.2507 28.7359 26.5321 28.7359H24.5199C23.4814 28.7359 22.5433 29.3529 22.1319 30.3063L19.2133 37.0742L19.16 37.2088L19.1143 37.3421C19.0978 37.3954 19.0825 37.45 19.0711 37.5046Z" fill="#87878C"/>
</svg>
