<svg width="64" height="64" viewBox="0 0 64 64" fill="none" xmlns="http://www.w3.org/2000/svg">
<path d="M29.9429 1.56952C31.2092 0.810159 32.7909 0.810159 34.0572 1.56952L39.9132 5.08115C40.4323 5.39244 41.0153 5.58186 41.6182 5.63514L48.4199 6.23623C49.8907 6.36621 51.1702 7.29588 51.7484 8.65454L54.4219 14.9376C54.6589 15.4945 55.0192 15.9904 55.4756 16.3879L60.625 20.8721C61.7385 21.8418 62.2272 23.3461 61.8964 24.785L60.3662 31.4395C60.2305 32.0294 60.2305 32.6424 60.3662 33.2323L61.8964 39.8868C62.2272 41.3258 61.7385 42.83 60.625 43.7997L55.4756 48.2839C55.0192 48.6814 54.6589 49.1773 54.4219 49.7343L51.7484 56.0173C51.1702 57.376 49.8907 58.3056 48.4199 58.4356L41.6182 59.0367C41.0153 59.09 40.4323 59.2794 39.9132 59.5907L34.0572 63.1023C32.7909 63.8617 31.2092 63.8617 29.9429 63.1023L24.087 59.5907C23.5679 59.2794 22.9849 59.09 22.382 59.0367L15.5803 58.4356C14.1095 58.3056 12.8299 57.376 12.2518 56.0173L9.57829 49.7343C9.3413 49.1773 8.98099 48.6814 8.52453 48.2839L3.37518 43.7997C2.26167 42.83 1.77291 41.3258 2.1038 39.8868L3.63396 33.2323C3.7696 32.6424 3.7696 32.0294 3.63396 31.4395L2.1038 24.785C1.77291 23.3461 2.26167 21.8418 3.37518 20.8721L8.52453 16.3879C8.98099 15.9904 9.3413 15.4945 9.57829 14.9376L12.2518 8.65454C12.8299 7.29588 14.1095 6.36621 15.5803 6.23623L22.382 5.63514C22.9849 5.58186 23.5679 5.39244 24.087 5.08115L29.9429 1.56952Z" fill="#C3C3C5"/>
<path fill-rule="evenodd" clip-rule="evenodd" d="M39.3989 5.93877L33.5429 2.42714C32.5932 1.85762 31.407 1.85762 30.4572 2.42714L24.6013 5.93877C23.9524 6.32788 23.2237 6.56465 22.47 6.63126L15.6683 7.23234C14.5652 7.32983 13.6055 8.02709 13.1719 9.04608L10.4985 15.3291C10.2022 16.0253 9.75183 16.6452 9.18125 17.1421L4.0319 21.6263C3.19677 22.3535 2.8302 23.4817 3.07837 24.5609L4.60853 31.2154C4.77808 31.9528 4.77808 32.719 4.60853 33.4564L3.07837 40.1109C2.8302 41.1901 3.19677 42.3183 4.0319 43.0456L9.18125 47.5298C9.75183 48.0267 10.2022 48.6466 10.4984 49.3428L13.1719 55.6258C13.6055 56.6448 14.5652 57.342 15.6683 57.4395L22.47 58.0406C23.2237 58.1072 23.9524 58.344 24.6013 58.7331L30.4572 62.2447C31.407 62.8142 32.5932 62.8142 33.5429 62.2447L39.3989 58.7331C40.0478 58.344 40.7765 58.1072 41.5302 58.0406L48.3318 57.4395C49.4349 57.342 50.3946 56.6448 50.8282 55.6258L53.5017 49.3428C53.798 48.6466 54.2483 48.0267 54.8189 47.5298L59.9683 43.0456C60.8034 42.3183 61.17 41.1901 60.9218 40.1109L59.3916 33.4564C59.2221 32.719 59.2221 31.9528 59.3916 31.2155L60.9218 24.5609C61.17 23.4817 60.8034 22.3535 59.9683 21.6263L54.8189 17.1421C54.2483 16.6452 53.798 16.0253 53.5017 15.3291L50.8282 9.04608C50.3946 8.02709 49.4349 7.32983 48.3318 7.23234L41.5302 6.63126C40.7765 6.56465 40.0478 6.32788 39.3989 5.93877ZM34.0572 1.56952C32.7909 0.810159 31.2092 0.810159 29.9429 1.56952L24.087 5.08115C23.5679 5.39244 22.9849 5.58186 22.382 5.63514L15.5803 6.23623C14.1095 6.36621 12.8299 7.29588 12.2518 8.65454L9.57829 14.9376C9.3413 15.4945 8.98099 15.9904 8.52453 16.3879L3.37518 20.8721C2.26167 21.8418 1.77291 23.3461 2.1038 24.785L3.63396 31.4395C3.7696 32.0294 3.7696 32.6424 3.63396 33.2323L2.1038 39.8868C1.77291 41.3258 2.26167 42.83 3.37518 43.7997L8.52453 48.2839C8.98099 48.6814 9.3413 49.1773 9.57829 49.7343L12.2518 56.0173C12.8299 57.376 14.1095 58.3056 15.5803 58.4356L22.382 59.0367C22.9849 59.09 23.5679 59.2794 24.087 59.5907L29.9429 63.1023C31.2092 63.8617 32.7909 63.8617 34.0572 63.1023L39.9132 59.5907C40.4323 59.2794 41.0153 59.09 41.6182 59.0367L48.4199 58.4356C49.8907 58.3056 51.1703 57.376 51.7484 56.0173L54.4219 49.7343C54.6589 49.1773 55.0192 48.6814 55.4756 48.2839L60.625 43.7997C61.7385 42.83 62.2272 41.3258 61.8964 39.8868L60.3662 33.2323C60.2306 32.6424 60.2306 32.0294 60.3662 31.4395L61.8964 24.785C62.2272 23.3461 61.7385 21.8418 60.625 20.8721L55.4756 16.3879C55.0192 15.9904 54.6589 15.4945 54.4219 14.9376L51.7484 8.65454C51.1703 7.29588 49.8907 6.36621 48.4199 6.23623L41.6182 5.63514C41.0153 5.58186 40.4323 5.39244 39.9132 5.08115L34.0572 1.56952Z" fill="#87878C"/>
<path d="M32.6243 16.6943C31.6764 16.6943 30.9391 17.5098 30.9318 18.5071C30.9245 19.5043 30.9245 20.3665 30.9245 20.3665L30.9172 22.2259L30.9025 25.9448C30.3745 26.0147 29.91 26.3447 29.6733 26.8322L28 30.3359L31 32.3359C31.701 32.8519 32.5887 32.8248 33.2881 32.2959L36 30.3359L34.3704 26.8347C34.1392 26.3565 33.689 26.0292 33.1742 25.9498V23.9452H38.7844C39.7305 23.9452 40.2814 22.8512 39.6655 21.9818C39.0496 21.1124 38.4241 20.3198 38.4241 20.3198C38.4241 20.3198 39.0651 19.4226 39.6655 18.6578C40.2659 17.8929 39.8441 16.6943 38.7844 16.6943C37.7247 16.6943 33.5721 16.6943 32.6243 16.6943Z" fill="#EAEAEB"/>
<path d="M39.4906 37.4279L41.0394 35.3732C41.7353 34.4501 43.1505 34.5469 43.7141 35.5563L47.5925 42.5022C48.2873 43.7464 47.3878 45.2789 45.9627 45.2789L18.1271 45.2789C16.7162 45.279 15.8153 43.774 16.4818 42.5305L20.1018 35.776C20.6739 34.7084 22.1789 34.6391 22.8468 35.6496L24.0255 37.433C24.114 37.5669 24.2391 37.6689 24.3827 37.7293L28 30.3359L31 32.3359C31.701 32.8519 32.5887 32.8248 33.2881 32.2959L36 30.3359L39.4906 37.4279Z" fill="#EAEAEB"/>
<path fill-rule="evenodd" clip-rule="evenodd" d="M32.624 17.1943C31.9903 17.1943 31.4371 17.747 31.4315 18.5107C31.4279 19.0084 31.426 19.4724 31.4251 19.8121C31.4247 19.9819 31.4244 20.1206 31.4243 20.2168L31.4242 20.3659L31.4242 20.3685L31.4005 26.3833L30.9678 26.4405C30.6053 26.4884 30.2863 26.7149 30.1235 27.0493C30.1232 27.0497 30.123 27.0501 30.1228 27.0506L28.6377 30.1603L31.2867 31.9264L31.2961 31.9332C31.8092 32.3109 32.4535 32.2999 32.9862 31.8971L32.9949 31.8906L35.3722 30.1726L33.9185 27.0494C33.7592 26.7223 33.4505 26.4984 33.0976 26.4439L32.6739 26.3785V23.4452H38.7841C39.2681 23.4452 39.6717 22.856 39.2572 22.2708C38.9536 21.8423 38.6469 21.4316 38.4156 21.1275C38.3 20.9756 38.2036 20.8507 38.1363 20.7639C38.1026 20.7205 38.0762 20.6867 38.0582 20.6639L38.0379 20.638L38.0316 20.6299L37.7986 20.3347L38.017 20.0291L38.0247 20.0183L38.0465 19.988L38.1282 19.8746C38.1983 19.7777 38.298 19.6405 38.4166 19.4793C38.6533 19.1575 38.9671 18.7373 39.2719 18.349C39.4564 18.1139 39.4818 17.8149 39.3849 17.5797C39.2941 17.3593 39.0983 17.1943 38.7841 17.1943H32.624ZM39.0485 20.309C39.0996 20.2389 39.1581 20.159 39.2221 20.0719C39.456 19.7539 39.7629 19.3431 40.0585 18.9665C40.4743 18.4367 40.5383 17.754 40.3095 17.1987C40.0746 16.6286 39.5297 16.1943 38.7841 16.1943H32.624C31.362 16.1943 30.4406 17.2726 30.4315 18.5034C30.4279 19.003 30.426 19.4687 30.4251 19.8094C30.4247 19.9798 30.4244 20.119 30.4243 20.2156L30.4242 20.3655L30.4038 25.5541C29.8955 25.7364 29.4672 26.1114 29.2233 26.6138L29.2219 26.6167L27.5485 30.1205L24.2489 36.8646L23.2636 35.3739C22.387 34.0476 20.4118 34.1386 19.6608 35.5399L16.0408 42.2943C15.1958 43.8709 16.338 45.779 18.1268 45.7789L45.9624 45.7789C47.7692 45.7789 48.9096 43.8359 48.0288 42.2584L44.1503 35.3125C43.4106 33.9877 41.5532 33.8606 40.6399 35.0723L39.5802 36.4781L36.4507 30.12L34.8234 26.6238L34.8203 26.6172C34.5823 26.1249 34.1676 25.7546 33.6739 25.5674V24.4452H38.7841C40.1924 24.4452 40.8904 22.8464 40.0732 21.6928C39.7609 21.252 39.4469 20.8316 39.2115 20.5221C39.1518 20.4436 39.097 20.372 39.0485 20.309ZM35.8126 31.0881L33.5849 32.6981C32.7226 33.3474 31.5991 33.3914 30.7132 32.7459L28.1978 31.0689L24.624 38.3733L24.1886 38.1902C23.9553 38.092 23.7519 37.9262 23.6081 37.7087L22.4294 35.9253C21.9702 35.2306 20.9356 35.2783 20.5422 36.0122L16.9222 42.7667C16.4343 43.6771 17.0938 44.779 18.1268 44.7789L45.9624 44.7789C47.0058 44.7789 47.6643 43.6569 47.1557 42.7459L43.2772 35.8C42.8898 35.1061 41.9168 35.0395 41.4384 35.6742L39.4006 38.3777L35.8126 31.0881Z" fill="#87878C"/>
</svg>
