<svg _ngcontent-bhq-c189="" viewBox="0 0 24 24" xmlns="http://www.w3.org/2000/svg" class="pixel-points-icon _grey"><path _ngcontent-bhq-c189="" fill-rule="evenodd" clip-rule="evenodd" d="M13.3743 0.401178C12.4456 -0.133725 11.3023 -0.133726 10.3736 0.401177C10.3736 0.401177 3.67369 4.27202 2.58685 4.88601C1.5 5.5 1.08105 6.36962 1.08105 7.49098C1.08105 8.61234 1.08105 15.4339 1.08105 16.509C1.08105 17.5841 1.65521 18.5774 2.58685 19.114C3.51848 19.6506 10.3736 23.5988 10.3736 23.5988C11.3023 24.1337 12.4456 24.1337 13.3743 23.5988L21.161 19.114C22.0927 18.5774 22.6668 17.5841 22.6668 16.509V7.49098C22.6668 6.41586 22.0927 5.4226 21.161 4.88601L13.3743 0.401178Z" fill="currentColor" class="pixel-points-icon__background"/><path _ngcontent-bhq-c189="" fill-rule="evenodd" clip-rule="evenodd" d="M7.19446 15.6753V13.6684H8.2614C8.86281 13.6684 9.39316 13.5565 9.84971 13.3295C10.3087 13.1027 10.6664 12.7781 10.9207 12.3563C11.1782 11.9332 11.3051 11.4354 11.3051 10.8665C11.3051 10.303 11.1821 9.80584 10.933 9.37834C10.6843 8.95172 10.3358 8.6205 9.88948 8.38559C9.44259 8.15038 8.92412 8.03442 8.33697 8.03442H5.19055C5.0303 8.03442 4.90039 8.16433 4.90039 8.32458V15.6753C4.90039 15.8355 5.0303 15.9655 5.19055 15.9655H6.9043C7.06456 15.9655 7.19446 15.8355 7.19446 15.6753ZM7.83826 11.8428H7.19446V10.0021C7.19446 9.94865 7.23777 9.90535 7.29118 9.90535H7.83826C8.07421 9.90535 8.26909 9.9463 8.42645 10.0238L8.42796 10.0246C8.58776 10.0999 8.70732 10.2079 8.79006 10.3488L8.791 10.3503C8.8756 10.4884 8.92031 10.6589 8.92031 10.8665C8.92031 11.0712 8.87573 11.2437 8.7903 11.3876L8.78973 11.3886C8.70662 11.5323 8.5865 11.6442 8.4262 11.7244C8.26888 11.8019 8.07408 11.8428 7.83826 11.8428Z" fill="currentColor" class="pixel-points-icon__icon"/><path _ngcontent-bhq-c189="" d="M12.3195 8.03442C12.0946 8.03442 11.9552 8.2793 12.07 8.47272L14.134 11.9489C14.1523 11.9798 14.1521 12.0183 14.1333 12.0489L12.0023 15.5236C11.8837 15.7169 12.0229 15.9655 12.2497 15.9655H14.1797C14.2838 15.9655 14.3799 15.9097 14.4315 15.8194L15.6369 13.7135L16.8422 15.8194C16.8939 15.9097 16.99 15.9655 17.0941 15.9655H19.0369C19.2645 15.9655 19.4035 15.7155 19.2834 15.5222L17.1263 12.049C17.1072 12.0183 17.1068 11.9795 17.1254 11.9484L19.2022 8.47344C19.3178 8.28003 19.1785 8.03442 18.9531 8.03442H17.064C16.9598 8.03442 16.8636 8.0903 16.812 8.18081L15.6372 10.2401L14.477 8.18209C14.4255 8.09086 14.3289 8.03442 14.2242 8.03442H12.3195Z" fill="currentColor" class="pixel-points-icon__icon"/></svg>