<svg width="64" height="64" viewBox="0 0 64 64" fill="none" xmlns="http://www.w3.org/2000/svg">
<path d="M29.9429 1.56952C31.2092 0.810159 32.7909 0.810159 34.0572 1.56952L39.9132 5.08115C40.4323 5.39244 41.0153 5.58186 41.6182 5.63514L48.4199 6.23623C49.8907 6.36621 51.1703 7.29588 51.7484 8.65454L54.4219 14.9376C54.6589 15.4945 55.0192 15.9904 55.4756 16.3879L60.625 20.8721C61.7385 21.8418 62.2272 23.3461 61.8964 24.785L60.3662 31.4395C60.2306 32.0294 60.2306 32.6424 60.3662 33.2323L61.8964 39.8868C62.2272 41.3258 61.7385 42.83 60.625 43.7997L55.4756 48.2839C55.0192 48.6814 54.6589 49.1773 54.4219 49.7343L51.7484 56.0173C51.1703 57.376 49.8907 58.3056 48.4199 58.4356L41.6182 59.0367C41.0153 59.09 40.4323 59.2794 39.9132 59.5907L34.0572 63.1023C32.7909 63.8617 31.2092 63.8617 29.9429 63.1023L24.087 59.5907C23.5679 59.2794 22.9849 59.09 22.382 59.0367L15.5803 58.4356C14.1095 58.3056 12.8299 57.376 12.2518 56.0173L9.57829 49.7343C9.3413 49.1773 8.98099 48.6814 8.52453 48.2839L3.37518 43.7997C2.26167 42.83 1.77291 41.3258 2.1038 39.8868L3.63396 33.2323C3.7696 32.6424 3.7696 32.0294 3.63396 31.4395L2.1038 24.785C1.77291 23.3461 2.26167 21.8418 3.37518 20.8721L8.52453 16.3879C8.98099 15.9904 9.3413 15.4945 9.57829 14.9376L12.2518 8.65454C12.8299 7.29588 14.1095 6.36621 15.5803 6.23623L22.382 5.63514C22.9849 5.58186 23.5679 5.39244 24.087 5.08115L29.9429 1.56952Z" fill="#C3C3C5"/>
<path fill-rule="evenodd" clip-rule="evenodd" d="M39.3989 5.93877L33.5429 2.42714C32.5932 1.85762 31.407 1.85762 30.4572 2.42714L24.6013 5.93877C23.9524 6.32788 23.2237 6.56465 22.47 6.63126L15.6683 7.23234C14.5652 7.32983 13.6055 8.02709 13.1719 9.04608L10.4985 15.3291C10.2022 16.0253 9.75183 16.6452 9.18125 17.1421L4.0319 21.6263C3.19677 22.3535 2.8302 23.4817 3.07837 24.5609L4.60853 31.2154C4.77808 31.9528 4.77808 32.719 4.60853 33.4564L3.07837 40.1109C2.8302 41.1901 3.19677 42.3183 4.0319 43.0456L9.18125 47.5298C9.75183 48.0267 10.2022 48.6466 10.4984 49.3428L13.1719 55.6258C13.6055 56.6448 14.5652 57.342 15.6683 57.4395L22.47 58.0406C23.2237 58.1072 23.9524 58.344 24.6013 58.7331L30.4572 62.2447C31.407 62.8142 32.5932 62.8142 33.5429 62.2447L39.3989 58.7331C40.0478 58.344 40.7765 58.1072 41.5302 58.0406L48.3318 57.4395C49.4349 57.342 50.3946 56.6448 50.8282 55.6258L53.5017 49.3428C53.798 48.6466 54.2483 48.0267 54.8189 47.5298L59.9683 43.0456C60.8034 42.3183 61.17 41.1901 60.9218 40.1109L59.3916 33.4564C59.2221 32.719 59.2221 31.9528 59.3916 31.2155L60.9218 24.5609C61.17 23.4817 60.8034 22.3535 59.9683 21.6263L54.8189 17.1421C54.2483 16.6452 53.798 16.0253 53.5017 15.3291L50.8282 9.04608C50.3946 8.02709 49.4349 7.32983 48.3318 7.23234L41.5302 6.63126C40.7765 6.56465 40.0478 6.32788 39.3989 5.93877ZM34.0572 1.56952C32.7909 0.810159 31.2092 0.810159 29.9429 1.56952L24.087 5.08115C23.5679 5.39244 22.9849 5.58186 22.382 5.63514L15.5803 6.23623C14.1095 6.36621 12.8299 7.29588 12.2518 8.65454L9.57829 14.9376C9.3413 15.4945 8.98099 15.9904 8.52453 16.3879L3.37518 20.8721C2.26167 21.8418 1.77291 23.3461 2.1038 24.785L3.63396 31.4395C3.7696 32.0294 3.7696 32.6424 3.63396 33.2323L2.1038 39.8868C1.77291 41.3258 2.26167 42.83 3.37518 43.7997L8.52453 48.2839C8.98099 48.6814 9.3413 49.1773 9.57829 49.7343L12.2518 56.0173C12.8299 57.376 14.1095 58.3056 15.5803 58.4356L22.382 59.0367C22.9849 59.09 23.5679 59.2794 24.087 59.5907L29.9429 63.1023C31.2092 63.8617 32.7909 63.8617 34.0572 63.1023L39.9132 59.5907C40.4323 59.2794 41.0153 59.09 41.6182 59.0367L48.4199 58.4356C49.8907 58.3056 51.1703 57.376 51.7484 56.0173L54.4219 49.7343C54.6589 49.1773 55.0192 48.6814 55.4756 48.2839L60.625 43.7997C61.7385 42.83 62.2272 41.3258 61.8964 39.8868L60.3662 33.2323C60.2306 32.6424 60.2306 32.0294 60.3662 31.4395L61.8964 24.785C62.2272 23.3461 61.7385 21.8418 60.625 20.8721L55.4756 16.3879C55.0192 15.9904 54.6589 15.4945 54.4219 14.9376L51.7484 8.65454C51.1703 7.29588 49.8907 6.36621 48.4199 6.23623L41.6182 5.63514C41.0153 5.58186 40.4323 5.39244 39.9132 5.08115L34.0572 1.56952Z" fill="#87878C"/>
<rect width="32" height="32" transform="translate(16 16.3361)" fill="#C3C3C5"/>
<path d="M27.3337 31.3361C26.5973 31.3361 26.0003 31.9331 26.0003 32.6695V44.6695H38.0003V32.6695C38.0003 31.9331 37.4034 31.3361 36.667 31.3361H27.3337Z" fill="#EAEAEB"/>
<path d="M20.0003 38.0028C19.2639 38.0028 18.667 38.5997 18.667 39.3361V44.1695C18.667 44.4456 18.8909 44.6695 19.167 44.6695H26.0003V38.0028H20.0003Z" fill="#EAEAEB"/>
<path d="M38.0003 38.0028H44.0003C44.7367 38.0028 45.3337 38.5997 45.3337 39.3361V44.1695C45.3337 44.4456 45.1098 44.6695 44.8337 44.6695H38.0003V38.0028Z" fill="#EAEAEB"/>
<path fill-rule="evenodd" clip-rule="evenodd" d="M27.3337 31.8361C26.8734 31.8361 26.5003 32.2092 26.5003 32.6695V44.1695H37.5003V32.6695C37.5003 32.2092 37.1272 31.8361 36.667 31.8361H27.3337ZM38.5003 37.5028V32.6695C38.5003 31.6569 37.6795 30.8361 36.667 30.8361H27.3337C26.3211 30.8361 25.5003 31.6569 25.5003 32.6695V37.5028H20.0003C18.9878 37.5028 18.167 38.3236 18.167 39.3361V44.1695C18.167 44.7217 18.6147 45.1695 19.167 45.1695H44.8337C45.3859 45.1695 45.8337 44.7217 45.8337 44.1695V39.3361C45.8337 38.3236 45.0128 37.5028 44.0003 37.5028H38.5003ZM38.5003 38.5028V44.1695H44.8337V39.3361C44.8337 38.8759 44.4606 38.5028 44.0003 38.5028H38.5003ZM25.5003 38.5028H20.0003C19.5401 38.5028 19.167 38.8759 19.167 39.3361V44.1695H25.5003V38.5028Z" fill="#87878C"/>
<path d="M32.7031 17.9733C32.4717 17.3076 31.5303 17.3076 31.2989 17.9733L30.4231 20.4928C30.321 20.7864 30.047 20.9856 29.7361 20.9919L27.0694 21.0462C26.3647 21.0606 26.0738 21.956 26.6354 22.3818L28.7609 23.9932C29.0087 24.1811 29.1134 24.5033 29.0233 24.8009L28.2509 27.3539C28.0469 28.0284 28.8085 28.5818 29.387 28.1793L31.5764 26.6558C31.8316 26.4782 32.1704 26.4782 32.4256 26.6558L34.615 28.1793C35.1935 28.5818 35.9551 28.0284 35.7511 27.3539L34.9787 24.8008C34.8886 24.5033 34.9933 24.1811 35.2411 23.9932L37.3666 22.3818C37.9282 21.956 37.6373 21.0606 36.9326 21.0462L34.2659 20.9919C33.955 20.9856 33.681 20.7864 33.5789 20.4928L32.7031 17.9733Z" fill="#EAEAEB"/>
<path fill-rule="evenodd" clip-rule="evenodd" d="M32.2308 18.1375C32.155 17.9196 31.8468 17.9196 31.771 18.1375L30.8953 20.6569L30.423 20.4928L30.8953 20.6569C30.7245 21.1481 30.2661 21.4812 29.7462 21.4918L27.0795 21.5461C26.8488 21.5508 26.7535 21.844 26.9374 21.9834L29.0629 23.5948C29.4773 23.909 29.6524 24.4479 29.5018 24.9456L28.7294 27.4986C28.6626 27.7195 28.912 27.9007 29.1014 27.7689L31.2907 26.2454C31.7176 25.9483 32.2842 25.9483 32.7111 26.2454L34.9005 27.7689C35.0898 27.9006 35.3392 27.7195 35.2724 27.4986L34.5 24.9456C34.3494 24.4479 34.5245 23.909 34.9389 23.5948L37.0644 21.9834C37.2483 21.844 37.153 21.5508 36.9223 21.5461L34.2556 21.4918C33.7357 21.4812 33.2773 21.1481 33.1065 20.6569L32.2308 18.1375ZM30.8265 17.8092C31.2135 16.6957 32.7883 16.6957 33.1753 17.8092L34.0511 20.3286C34.0845 20.4247 34.1742 20.4899 34.276 20.492L36.9427 20.5463C38.1213 20.5704 38.608 22.068 37.6686 22.7802L35.5431 24.3917C35.462 24.4532 35.4277 24.5586 35.4572 24.6561L36.2295 27.2091C36.5709 28.3374 35.2969 29.263 34.3293 28.5897L32.1399 27.0662C32.0564 27.0081 31.9455 27.0081 31.8619 27.0662L29.6725 28.5897C28.7049 29.263 27.4309 28.3374 27.7723 27.2091L28.5447 24.6561C28.5741 24.5586 28.5399 24.4532 28.4588 24.3917L28.6812 24.0982L28.4588 24.3917L26.3333 22.7802C25.3939 22.068 25.8805 20.5704 27.0591 20.5463L29.7258 20.492C29.8276 20.4899 29.9173 20.4247 29.9507 20.3286L30.8265 17.8092Z" fill="#87878C"/>
</svg>
