<svg width="64" height="64" viewBox="0 0 64 64" fill="none" xmlns="http://www.w3.org/2000/svg">
<path d="M29.9429 1.56952C31.2092 0.810159 32.7909 0.810159 34.0572 1.56952L39.9132 5.08115C40.4323 5.39244 41.0153 5.58186 41.6182 5.63514L48.4199 6.23623C49.8907 6.36621 51.1703 7.29588 51.7484 8.65454L54.4219 14.9376C54.6589 15.4945 55.0192 15.9904 55.4756 16.3879L60.625 20.8721C61.7385 21.8418 62.2272 23.3461 61.8964 24.785L60.3662 31.4395C60.2306 32.0294 60.2306 32.6424 60.3662 33.2323L61.8964 39.8868C62.2272 41.3258 61.7385 42.83 60.625 43.7997L55.4756 48.2839C55.0192 48.6814 54.6589 49.1773 54.4219 49.7343L51.7484 56.0173C51.1703 57.376 49.8907 58.3056 48.4199 58.4356L41.6182 59.0367C41.0153 59.09 40.4323 59.2794 39.9132 59.5907L34.0572 63.1023C32.7909 63.8617 31.2092 63.8617 29.9429 63.1023L24.087 59.5907C23.5679 59.2794 22.9849 59.09 22.382 59.0367L15.5803 58.4356C14.1095 58.3056 12.8299 57.376 12.2518 56.0173L9.57829 49.7343C9.3413 49.1773 8.98099 48.6814 8.52453 48.2839L3.37518 43.7997C2.26167 42.83 1.77291 41.3258 2.1038 39.8868L3.63396 33.2323C3.7696 32.6424 3.7696 32.0294 3.63396 31.4395L2.1038 24.785C1.77291 23.3461 2.26167 21.8418 3.37518 20.8721L8.52453 16.3879C8.98099 15.9904 9.3413 15.4945 9.57829 14.9376L12.2518 8.65454C12.8299 7.29588 14.1095 6.36621 15.5803 6.23623L22.382 5.63514C22.9849 5.58186 23.5679 5.39244 24.087 5.08115L29.9429 1.56952Z" fill="#C3C3C5"/>
<path fill-rule="evenodd" clip-rule="evenodd" d="M39.3989 5.93877L33.5429 2.42714C32.5932 1.85762 31.407 1.85762 30.4572 2.42714L24.6013 5.93877C23.9524 6.32788 23.2237 6.56465 22.47 6.63126L15.6683 7.23234C14.5652 7.32983 13.6055 8.02709 13.1719 9.04608L10.4985 15.3291C10.2022 16.0253 9.75183 16.6452 9.18125 17.1421L4.0319 21.6263C3.19677 22.3535 2.8302 23.4817 3.07837 24.5609L4.60853 31.2154C4.77808 31.9528 4.77808 32.719 4.60853 33.4564L3.07837 40.1109C2.8302 41.1901 3.19677 42.3183 4.0319 43.0456L9.18125 47.5298C9.75183 48.0267 10.2022 48.6466 10.4984 49.3428L13.1719 55.6258C13.6055 56.6448 14.5652 57.342 15.6683 57.4395L22.47 58.0406C23.2237 58.1072 23.9524 58.344 24.6013 58.7331L30.4572 62.2447C31.407 62.8142 32.5932 62.8142 33.5429 62.2447L39.3989 58.7331C40.0478 58.344 40.7765 58.1072 41.5302 58.0406L48.3318 57.4395C49.4349 57.342 50.3946 56.6448 50.8282 55.6258L53.5017 49.3428C53.798 48.6466 54.2483 48.0267 54.8189 47.5298L59.9683 43.0456C60.8034 42.3183 61.17 41.1901 60.9218 40.1109L59.3916 33.4564C59.2221 32.719 59.2221 31.9528 59.3916 31.2155L60.9218 24.5609C61.17 23.4817 60.8034 22.3535 59.9683 21.6263L54.8189 17.1421C54.2483 16.6452 53.798 16.0253 53.5017 15.3291L50.8282 9.04608C50.3946 8.02709 49.4349 7.32983 48.3318 7.23234L41.5302 6.63126C40.7765 6.56465 40.0478 6.32788 39.3989 5.93877ZM34.0572 1.56952C32.7909 0.810159 31.2092 0.810159 29.9429 1.56952L24.087 5.08115C23.5679 5.39244 22.9849 5.58186 22.382 5.63514L15.5803 6.23623C14.1095 6.36621 12.8299 7.29588 12.2518 8.65454L9.57829 14.9376C9.3413 15.4945 8.98099 15.9904 8.52453 16.3879L3.37518 20.8721C2.26167 21.8418 1.77291 23.3461 2.1038 24.785L3.63396 31.4395C3.7696 32.0294 3.7696 32.6424 3.63396 33.2323L2.1038 39.8868C1.77291 41.3258 2.26167 42.83 3.37518 43.7997L8.52453 48.2839C8.98099 48.6814 9.3413 49.1773 9.57829 49.7343L12.2518 56.0173C12.8299 57.376 14.1095 58.3056 15.5803 58.4356L22.382 59.0367C22.9849 59.09 23.5679 59.2794 24.087 59.5907L29.9429 63.1023C31.2092 63.8617 32.7909 63.8617 34.0572 63.1023L39.9132 59.5907C40.4323 59.2794 41.0153 59.09 41.6182 59.0367L48.4199 58.4356C49.8907 58.3056 51.1703 57.376 51.7484 56.0173L54.4219 49.7343C54.6589 49.1773 55.0192 48.6814 55.4756 48.2839L60.625 43.7997C61.7385 42.83 62.2272 41.3258 61.8964 39.8868L60.3662 33.2323C60.2306 32.6424 60.2306 32.0294 60.3662 31.4395L61.8964 24.785C62.2272 23.3461 61.7385 21.8418 60.625 20.8721L55.4756 16.3879C55.0192 15.9904 54.6589 15.4945 54.4219 14.9376L51.7484 8.65454C51.1703 7.29588 49.8907 6.36621 48.4199 6.23623L41.6182 5.63514C41.0153 5.58186 40.4323 5.39244 39.9132 5.08115L34.0572 1.56952Z" fill="#87878C"/>
<path d="M32 23.1233C34.248 21.5941 39.9611 19.1443 45.3837 21.096C45.7611 21.2318 46 21.5937 46 21.9948V42.9218C46 43.6687 45.198 44.1692 44.4838 43.9506C40.6253 42.7695 34.4448 43.0099 32 46.3359C29.5552 43.0099 23.3747 42.7695 19.5162 43.9506C18.802 44.1692 18 43.6683 18 42.9214V22.0016C18 21.5953 18.2454 21.2337 18.6288 21.0992C24.2481 19.1272 29.7505 21.4018 32 23.1233Z" fill="#EAEAEB"/>
<path fill-rule="evenodd" clip-rule="evenodd" d="M32.0159 22.515C29.5211 20.7585 24.0596 18.6635 18.4633 20.6274C17.8706 20.8353 17.5 21.3925 17.5 22.0016V42.9214C17.5 44.0631 18.6853 44.7278 19.6625 44.4287C21.522 43.8595 23.958 43.6302 26.2186 43.9482C28.4905 44.2678 30.4892 45.1248 31.5971 46.6321C31.6913 46.7603 31.8409 46.8359 32 46.8359C32.1591 46.8359 32.3087 46.7603 32.4029 46.6321C33.5108 45.1248 35.5095 44.2679 37.7814 43.9482C40.042 43.6302 42.478 43.8595 44.3375 44.4287C45.3144 44.7277 46.5 44.0638 46.5 42.9218V21.9948C46.5 21.3966 46.1414 20.8373 45.553 20.6255L45.3842 21.0947L45.553 20.6255C42.7253 19.6078 39.838 19.7429 37.3872 20.3175C35.1339 20.8458 33.221 21.7519 32.0159 22.515ZM31.5 23.375C29.2285 21.7447 24.0529 19.7256 18.7944 21.5709C18.6201 21.6321 18.5 21.798 18.5 22.0016V42.9214C18.5 43.2735 18.9186 43.6106 19.3698 43.4725C21.3689 42.8606 23.9524 42.6195 26.3579 42.958C28.2777 43.228 30.1458 43.8771 31.5 45.0614V23.375ZM32.5 45.0614C33.8542 43.8771 35.7223 43.2281 37.6421 42.958C40.0476 42.6196 42.6311 42.8606 44.6302 43.4725C45.0817 43.6107 45.5 43.2736 45.5 42.9218V21.9948C45.5 21.7909 45.3808 21.6263 45.2144 21.5664C42.6195 20.6325 39.9389 20.7464 37.6155 21.2911C35.44 21.8011 33.6073 22.6822 32.5 23.3923V45.0614Z" fill="#87878C"/>
</svg>
