<svg _ngcontent-bhq-c269="" xmlns="http://www.w3.org/2000/svg" xmlns:xlink="http://www.w3.org/1999/xlink"><symbol _ngcontent-bhq-c269="" fill="none" viewBox="0 0 600 600" id="abstract" xmlns="http://www.w3.org/2000/svg"><path _ngcontent-bhq-c269="" d="M0 300C0 134.315 134.315 0 300 0s300 134.315 300 300-134.315 300-300 300S0 465.685 0 300Z" fill="#05060F"/><path _ngcontent-bhq-c269="" fill="#fff" d="M149 144h300v293H149z"/><path _ngcontent-bhq-c269="" d="M236.395 304.4a45.573 45.573 0 0 1 25.319-7.681 45.616 45.616 0 0 1 45.573 45.573 45.575 45.575 0 0 1-54.464 44.698 45.577 45.577 0 0 1-35.806-35.807 45.578 45.578 0 0 1 19.378-46.783Z" fill="#05060F"/><path _ngcontent-bhq-c269="" fill-rule="evenodd" clip-rule="evenodd" d="M66.656 303.393c.49-186.679 47.277-233.232 233.955-232.742 186.679.49 233.232 47.277 232.742 233.956-.49 186.678-47.299 233.231-233.978 232.741-186.679-.49-233.209-47.276-232.719-233.955Zm145.429 113.171a89.33 89.33 0 0 0 49.627 15.054 89.444 89.444 0 0 0 89.326-89.326 89.324 89.324 0 0 0-106.752-87.609 89.326 89.326 0 0 0-32.201 161.881Zm168.122 4.391a7 7 0 0 0 7 7h29.752a7 7 0 0 0 7-7v-233.91a7 7 0 0 0-7-7H183.027a7 7 0 0 0-7 7v29.753a7 7 0 0 0 7 7h190.18a7 7 0 0 1 7 7v190.157Z" fill="#05060F"/></symbol><symbol _ngcontent-bhq-c269="" fill="none" viewBox="0 0 600 600" id="adobe-aftereffects" xmlns="http://www.w3.org/2000/svg"><path _ngcontent-bhq-c269="" d="M0 300C0 134.315 134.315 0 300 0s300 134.315 300 300-134.315 300-300 300S0 465.685 0 300Z" fill="#000557"/><path _ngcontent-bhq-c269="" d="M410.247 296.243c11.459 0 15.504 0 16.627-.408 0-1.428.45-2.449.45-3.469 0-11.018-5.843-31.422-29.211-31.422-21.571 0-30.783 17.139-33.03 35.299h45.164Zm-45.613 27.952c.45 27.545 14.83 46.113 48.984 46.113 13.257 0 24.716-1.632 36.626-6.325 1.573-.612 2.697-.408 2.697 1.428v25.505c0 2.04-.674 3.061-2.246 4.081-11.91 5.304-26.74 7.753-45.165 7.753-59.319 0-81.565-39.787-81.565-84.062 0-48.153 27.414-87.531 75.724-87.531 48.984 0 66.061 37.338 66.061 67.739 0 9.795-.674 17.752-1.797 21.629-.45 1.632-1.124 2.245-2.922 2.653-4.494.612-17.751 1.427-37.525 1.427h-58.872v-.41Zm-120.437-20.811c-6.291-22.648-21.571-72.025-27.189-95.897h-.449c-4.718 23.872-17.078 64.271-26.29 95.897h53.928Zm-63.141 33.054-17.751 61.007c-.449 1.631-1.123 2.244-3.371 2.244h-33.03c-2.247 0-2.697-.612-2.247-3.06l63.814-202.609c1.123-3.672 1.797-6.529 2.246-16.73 0-1.428.674-2.04 1.798-2.04h47.186c1.573 0 2.247.408 2.697 2.04l71.453 219.747c.45 1.631 0 2.652-1.797 2.652h-37.075c-1.797 0-2.921-.612-3.371-2.039l-18.425-61.211-72.127-.001Z" fill="#9194FE"/></symbol><symbol _ngcontent-bhq-c269="" fill="none" viewBox="0 0 600 600" id="adobe-illustrator" xmlns="http://www.w3.org/2000/svg"><path _ngcontent-bhq-c269="" d="M0 300C0 134.315 134.315 0 300 0s300 134.315 300 300-134.315 300-300 300S0 465.685 0 300Z" fill="#300"/><path _ngcontent-bhq-c269="" d="M226.918 315.932h48.252l-24.125-98.289-24.127 98.289ZM301.652 423.7l-17.654-63.877h-65.32L201.024 423.7h-44.723l62.966-225.837v-24.727h60.023L351.082 423.7h-49.43Zm118.872 0H372.27V233.099h48.254V423.7Zm-23.835-213.473c-13.813 0-25.012-11.624-25.012-25.962 0-14.34 11.197-25.964 25.012-25.964 13.815 0 25.011 11.624 25.011 25.964 0 14.338-11.197 25.962-25.011 25.962Z" fill="#FF9A00"/></symbol><symbol _ngcontent-bhq-c269="" fill="none" viewBox="0 0 600 600" id="adobe-xd" xmlns="http://www.w3.org/2000/svg"><path _ngcontent-bhq-c269="" d="M0 300C0 134.315 134.315 0 300 0s300 134.315 300 300-134.315 300-300 300S0 465.685 0 300Z" fill="#470137"/><path _ngcontent-bhq-c269="" d="m310.06 206.225-58.792 96.913 62.897 102.923a3.22 3.22 0 0 1 .31 2.364c-.217.744-.941.269-2.212.486h-44.836c-3.154 0-5.376-.114-6.637-2.22a6681.823 6681.823 0 0 0-12.644-24.471 808.503 808.503 0 0 0-13.439-24.781 1375.238 1375.238 0 0 1-14.07-25.576h-.31a981.467 981.467 0 0 1-13.119 25.256 8262.566 8262.566 0 0 0-13.44 25.091 1131.477 1131.477 0 0 1-13.584 24.78c-.847 1.9-2.326 2.065-4.435 2.065h-43.295c-.838 0-1.313.331-1.417-.506-.119-.77.05-1.556.476-2.209l60.994-100.073-59.474-100.393c-.641-.836-.745-1.518-.31-2.065a2.293 2.293 0 0 1 1.892-.785h44.556a6.54 6.54 0 0 1 2.854.465 5.784 5.784 0 0 1 1.891 1.745 354.502 354.502 0 0 0 12.654 25.256 1444.38 1444.38 0 0 0 14.06 24.935 352.089 352.089 0 0 1 13.118 24.936h.311a938.247 938.247 0 0 1 12.798-25.256 1927.49 1927.49 0 0 1 13.274-24.781 1085.424 1085.424 0 0 0 13.119-24.78 4.912 4.912 0 0 1 1.272-2.065 4.545 4.545 0 0 1 2.522-.465h41.352a1.81 1.81 0 0 1 2.192 1.322 1.792 1.792 0 0 1-.61 1.837l.082.052ZM400.784 412.988a97.993 97.993 0 0 1-42.199-8.838 67.033 67.033 0 0 1-29.557-26.681 85.172 85.172 0 0 1-10.751-44.667 82.304 82.304 0 0 1 10.751-41.301 78.839 78.839 0 0 1 31.294-30.305 101.095 101.095 0 0 1 49.622-11.358c1.034 0 2.429.062 4.135.166 1.706.103 3.68.268 6.006.475v-62.252c0-1.466.631-2.209 1.903-2.209h39.822c.218-.032.441-.021.655.034a1.676 1.676 0 0 1 1.247 1.855v186.568c0 3.586.158 7.479.475 11.678.317 4.199.583 7.985.796 11.358a3.267 3.267 0 0 1-1.891 3.159 156.718 156.718 0 0 1-31.924 9.469 170.626 170.626 0 0 1-30.384 2.849Zm19.281-39.143V287.67a31.164 31.164 0 0 0-5.169-.95 63.644 63.644 0 0 0-6.482-.309 48.863 48.863 0 0 0-22.123 5.059 43.13 43.13 0 0 0-16.541 14.517 43.328 43.328 0 0 0-6.482 24.936 55.628 55.628 0 0 0 3.318 20.207 38.561 38.561 0 0 0 8.86 13.887 33.64 33.64 0 0 0 13.274 7.889 51.932 51.932 0 0 0 16.282 2.529c2.943 0 5.683-.106 8.219-.32a33.393 33.393 0 0 0 6.823-1.27h.021Z" fill="#FF61F6"/></symbol><symbol _ngcontent-bhq-c269="" fill="none" viewBox="0 0 600 600" id="axure" xmlns="http://www.w3.org/2000/svg"><path _ngcontent-bhq-c269="" d="M0 300C0 134.315 134.315 0 300 0s300 134.315 300 300-134.315 300-300 300S0 465.685 0 300Z" fill="#A82AF6"/><path _ngcontent-bhq-c269="" d="m239.116 167.786-.029-.043c-4.894-6.522-11.406-6.522-13.547-6.522h-21.189c-5.429 0-9.874 2.495-12.195 6.837-2.389 4.449-1.883 9.793 1.422 14.744l78.494 108.812-90.261 125.892c-3.153 4.736-3.596 9.998-1.214 14.443 2.336 4.343 6.785 6.831 12.203 6.831h21.659c5.571 0 10.469-2.892 12.918-7.446l101.03-139.217-89.291-124.331ZM408.386 168.568c-2.163-4.601-6.802-7.344-12.408-7.344h-21.663c-6.292 0-10.996 2.534-13.473 7.096l-32.107 46.91 28.108 38.438 49.073-70.392c5.386-6.544 3.521-12.468 2.47-14.708ZM356.187 332.183l62.974 86.424c2.396 4.785 2.326 9.856-.194 13.926-2.46 3.971-6.802 6.243-11.92 6.243h-21.181a15.624 15.624 0 0 1-6.282-1.373l-1.295-.566-49.802-66.468 27.7-38.186Z" fill="#fff"/></symbol><symbol _ngcontent-bhq-c269="" fill="none" viewBox="0 0 600 600" id="balsamiq" xmlns="http://www.w3.org/2000/svg"><path _ngcontent-bhq-c269="" d="M0 300C0 134.315 134.315 0 300 0s300 134.315 300 300-134.315 300-300 300S0 465.685 0 300Z" fill="#A60000"/><path _ngcontent-bhq-c269="" d="M305.825 136.149c-4.413-3.687-4.312-4.817 1.986-7.727 3.244-1.499 6.745-3.055 10.242-3.34a23.1 23.1 0 0 1 10.758 1.662c15.427 6.821 31.032 13.408 45.875 21.273 50.527 26.774 86.249 65.04 96.769 120.548 9.124 48.138 1.155 93.73-29.988 133.861-22.4 28.864-53.007 47.515-88.185 59.424-43.229 14.633-87.213 17.904-131.668 5.482-29.054-8.118-53.515-22.981-70.805-47.213-11.991-16.803-18.765-35.696-22.061-55.545-9.47-57.035-1.538-111.815 25.377-163.757 8.309-16.034 19.36-30.238 34.193-41.59 12.522-9.583 27.188-13.662 42.686-15.39 24.999-2.787 50.049-5.164 74.821-7.688ZM294.718 450.82c4.71-.357 13.143-.796 21.527-1.667 26.692-2.775 51.056-11.254 71.438-28.259 39.548-32.994 59.031-75.129 60.905-124.749 1.086-28.752-6.588-55.351-23.733-79.356-13.035-18.251-31.282-30.166-51.526-39.936-3.423-1.652-6.187-2.053-9.655-.42-6.411 3.017-12.761 3.174-18.976-.934-2.968-1.962-6.374-3.321-9.566-4.979-16.442-8.541-33.445-15.248-52.745-13.234-9.678 1.01-19.531 1.769-28.867 4.176-13.854 3.571-27.726 7.616-40.86 13.057-22.437 9.293-35.472 27.538-44.659 48.053-21.716 48.494-25.37 98.578-12.27 149.733 8.005 31.256 28.385 52.284 59.43 64.513 24.319 9.579 49.675 13.586 79.557 14.002Z" fill="#fff"/><path _ngcontent-bhq-c269="" d="M300.403 386.663c-27.496-.689-52.333-6.118-74.093-20.864-17.183-11.645-28.177-27.015-29.692-47.62a10.37 10.37 0 0 1-.052-1.246c.137-2.93-.967-6.667 3.538-7.386 4.574-.73 4.883 3.236 5.749 5.953 3.156 9.931 9.783 18.538 18.782 24.396 38.735 25.83 80.067 31.396 123.677 12.331 14.302-6.185 26.348-16.278 34.608-28.994.814-1.24 3.296-1.85 5.057-1.957.569-.035 1.993 2.537 1.868 3.813-1.29 14.809-8.447 28.597-20.021 38.571-16.061 14.193-35.816 20.133-57.129 22.239-4.483.443-9.001.567-12.292.764ZM240.373 283.709c-7.656-.017-13.476-2.164-16.524-8.374-3.315-6.754-2.812-13.532 1.968-19.565 4.505-5.686 15.567-5.712 21.551-.334 5.535 4.975 7.529 15.029 4.153 21.523-2.417 4.651-6.359 7.038-11.148 6.75ZM369.99 267.69c-.049 10.301-7.986 18.63-17.649 18.52-8.118-.093-14.09-7.779-13.972-17.982.103-8.882 6.569-14.442 16.383-14.673 6.894-.163 16.555 7.568 15.238 14.135Z" fill="#fff"/></symbol><symbol _ngcontent-bhq-c269="" fill="none" viewBox="0 0 600 600" id="blender" xmlns="http://www.w3.org/2000/svg"><path _ngcontent-bhq-c269="" d="M0 300C0 134.315 134.315 0 300 0s300 134.315 300 300-134.315 300-300 300S0 465.685 0 300Z" fill="#fff"/><path _ngcontent-bhq-c269="" d="M478.929 301.191c-2.312-16.273-7.949-31.706-16.758-45.864-7.682-12.356-17.539-23.346-29.305-32.686l.032-.029-123.568-94.907a3.465 3.465 0 0 0-.278-.222c-4.109-3.147-9.671-4.879-15.657-4.879-5.993 0-11.773 1.736-16.266 4.889-4.831 3.375-7.593 7.853-7.786 12.619-.176 4.447 1.945 8.726 5.989 12.061 7.953 6.275 15.888 12.686 23.834 19.106 7.711 6.232 15.657 12.651 23.564 18.899l-151.351-.102c-17.308 0-29.094 8.128-31.518 21.735-1.066 5.96.814 12.514 5.016 17.533 4.459 5.321 10.932 8.256 18.227 8.256l11.538.008c15.939 0 31.949-.04 47.937-.078l15.247-.036-137.364 101.625-.546.399c-7.672 5.88-12.695 14.125-13.78 22.619-.82 6.435.68 12.315 4.344 17.011 4.365 5.598 11.182 8.677 19.195 8.677 7.872 0 15.904-2.983 22.627-8.414l74.179-60.705c-.317 2.964-.702 7.313-.658 10.469.083 4.998 1.687 15.026 4.227 23.166 5.249 16.731 14.089 32.039 26.275 45.482 12.68 13.986 28.123 25.076 45.896 32.954 18.791 8.31 38.99 12.529 60.04 12.529h.195c21.117-.051 41.38-4.337 60.232-12.742 17.803-7.971 33.238-19.106 45.87-33.09 12.171-13.512 20.999-28.845 26.237-45.561a116.504 116.504 0 0 0 4.949-25.458c.648-8.353.369-16.854-.815-25.264ZM343.8 381.381c-46.391 0-84.01-33.652-84.01-75.167 0-41.509 37.62-75.161 84.01-75.161 46.391 0 84.006 33.652 84.006 75.161.002 41.515-37.615 75.167-84.006 75.167Z" fill="#F4792B"/><path _ngcontent-bhq-c269="" d="M379.291 332.021c8.691-8.516 13.64-20.021 12.956-32.411-.673-12.033-6.546-22.649-15.393-30.172-8.696-7.395-20.369-11.909-33.125-11.909-12.755 0-24.431 4.513-33.126 11.909-8.843 7.523-14.714 18.146-15.381 30.182-.68 12.382 4.259 23.885 12.946 32.401 8.844 8.677 21.461 14.126 35.561 14.126 14.107 0 26.722-5.449 35.562-14.126Z" fill="#0E548B"/></symbol><symbol _ngcontent-bhq-c269="" fill="none" viewBox="0 0 600 600" id="figjam" xmlns="http://www.w3.org/2000/svg"><path _ngcontent-bhq-c269="" d="M0 300C0 134.315 134.315 0 300 0s300 134.315 300 300-134.315 300-300 300S0 465.685 0 300Z" fill="#A259FF"/><path _ngcontent-bhq-c269="" fill-rule="evenodd" clip-rule="evenodd" d="M253.854 144.666c-34.894 0-62.932 28.833-62.932 64.027 0 19.996 9.031 37.897 23.209 49.653-14.178 11.756-23.209 29.657-23.209 49.653s9.031 37.897 23.209 49.653c-14.178 11.756-23.209 29.658-23.209 49.654 0 35.193 28.038 64.027 62.932 64.027 34.894 0 62.932-28.834 62.932-64.027v-45.71c9.88 6.584 21.706 10.43 34.426 10.43 34.894 0 62.932-28.833 62.932-64.027 0-19.996-9.031-37.897-23.209-49.653 14.178-11.756 23.209-29.657 23.209-49.653 0-35.194-28.038-64.027-62.932-64.027h-97.358Zm-34.429 64.027c0-19.624 15.58-35.28 34.429-35.28h34.426v70.559h-34.549c-18.793-.067-34.306-15.699-34.306-35.279Zm97.361 35.279v-70.559h34.426c18.849 0 34.429 15.656 34.429 35.28 0 19.586-15.522 35.221-34.322 35.279h-34.533Zm-97.361 64.027c0-19.587 15.523-35.222 34.323-35.28H288.28l.003 34.69-.003.59.003.591v34.688h-34.43c-18.848.001-34.428-15.655-34.428-35.279Zm131.787-35.28h.121c18.794.066 34.308 15.699 34.308 35.28 0 19.624-15.58 35.28-34.429 35.28-18.698 0-34.179-15.406-34.426-34.809v-.942c.247-19.349 15.642-34.724 34.269-34.809h.157ZM219.425 407.306c0-19.624 15.58-35.281 34.429-35.281h34.429v35.281c0 19.623-15.58 35.28-34.429 35.28-18.849 0-34.429-15.657-34.429-35.28Z" fill="#fff"/></symbol><symbol _ngcontent-bhq-c269="" fill="none" viewBox="0 0 600 600" id="figma" xmlns="http://www.w3.org/2000/svg"><path _ngcontent-bhq-c269="" d="M0 300C0 134.315 134.315 0 300 0s300 134.315 300 300-134.315 300-300 300S0 465.685 0 300Z" fill="#000"/><path _ngcontent-bhq-c269="" d="M302 304c0-30.066 24.373-54.44 54.44-54.44 30.066 0 54.44 24.374 54.44 54.44 0 30.067-24.374 54.44-54.44 54.44-30.067 0-54.44-24.373-54.44-54.44Z" fill="#1ABCFE"/><path _ngcontent-bhq-c269="" d="M193.121 412.88c0-30.066 24.374-54.44 54.44-54.44h54.44v54.44c0 30.066-24.373 54.44-54.44 54.44-30.066 0-54.44-24.374-54.44-54.44Z" fill="#0ACF83"/><path _ngcontent-bhq-c269="" d="M302 140.68v108.88h54.44c30.067 0 54.44-24.374 54.44-54.44s-24.373-54.44-54.44-54.44H302Z" fill="#FF7262"/><path _ngcontent-bhq-c269="" d="M193.121 195.12c0 30.066 24.374 54.44 54.44 54.44h54.44V140.68h-54.44c-30.066 0-54.44 24.374-54.44 54.44Z" fill="#F24E1E"/><path _ngcontent-bhq-c269="" d="M193.121 304c0 30.067 24.374 54.44 54.44 54.44h54.44V249.56h-54.44c-30.066 0-54.44 24.374-54.44 54.44Z" fill="#A259FF"/></symbol><symbol _ngcontent-bhq-c269="" fill="none" viewBox="0 0 600 600" id="flowmapp" xmlns="http://www.w3.org/2000/svg"><path _ngcontent-bhq-c269="" d="M0 300C0 134.315 134.315 0 300 0s300 134.315 300 300-134.315 300-300 300S0 465.685 0 300Z" fill="#0D87FF"/><path _ngcontent-bhq-c269="" fill-rule="evenodd" clip-rule="evenodd" d="M147.995 208.876c-9.328 0-16.89 7.499-16.89 16.75v150.748c0 9.251 7.562 16.75 16.89 16.75h8.445c9.327 0 16.889-7.499 16.889-16.75V250.751h76.002c9.328 0 16.89-7.499 16.89-16.75v-8.375c0-9.251-7.562-16.75-16.89-16.75H147.995Zm168.894 0h-8.445c-9.328 0-16.889 7.499-16.889 16.75v150.748c0 9.251 7.561 16.75 16.889 16.75h8.445c9.328 0 16.889-7.499 16.889-16.75V225.626c0-9.251-7.561-16.75-16.889-16.75Zm135.115 0h-8.445c-9.328 0-16.889 7.499-16.889 16.75v150.748c0 9.251 7.561 16.75 16.889 16.75h8.445c9.328 0 16.889-7.499 16.889-16.75V225.626c0-9.251-7.561-16.75-16.889-16.75Zm-76.002 33.5h8.444c9.328 0 16.89 7.498 16.89 16.749v92.124c0 9.251-7.562 16.75-16.89 16.75h-8.444c-9.328 0-16.89-7.499-16.89-16.75v-92.124c0-9.251 7.562-16.749 16.89-16.749Zm-152.005 50.249h-16.889c-9.328 0-16.89 7.499-16.89 16.75v8.375c0 9.251 7.562 16.75 16.89 16.75h16.889c9.328 0 16.89-7.499 16.89-16.75v-8.375c0-9.251-7.562-16.75-16.89-16.75Z" fill="#fff"/></symbol><symbol _ngcontent-bhq-c269="" fill="none" viewBox="0 0 600 600" id="framer" xmlns="http://www.w3.org/2000/svg"><path _ngcontent-bhq-c269="" d="M0 300C0 134.315 134.315 0 300 0s300 134.315 300 300-134.315 300-300 300S0 465.685 0 300Z" fill="#08F"/><path _ngcontent-bhq-c269="" d="M412.585 176.25v107.222H300.001L187.418 176.25h225.167ZM187.418 283.472h112.583l112.584 107.222H300.001v107.223L187.418 390.694V283.472Z" fill="#fff"/></symbol><symbol _ngcontent-bhq-c269="" fill="none" viewBox="0 0 600 600" id="google-analytics" xmlns="http://www.w3.org/2000/svg"><path _ngcontent-bhq-c269="" d="M0 300C0 134.315 134.315 0 300 0s300 134.315 300 300-134.315 300-300 300S0 465.685 0 300Z" fill="#fff"/><path _ngcontent-bhq-c269="" d="M349.75 154.375v247.5c0 27.694 19.106 43.125 39.375 43.125 18.75 0 39.375-13.125 39.375-43.125V156.25c0-25.387-18.75-41.25-39.375-41.25s-39.375 17.494-39.375 39.375Z" fill="#F9AB00"/><path _ngcontent-bhq-c269="" d="M246.625 280v121.875C246.625 429.569 265.731 445 286 445c18.75 0 39.375-13.125 39.375-43.125v-120c0-25.387-18.75-41.25-39.375-41.25S246.625 258.119 246.625 280ZM182.875 445c21.746 0 39.375-17.629 39.375-39.375s-17.629-39.375-39.375-39.375-39.375 17.629-39.375 39.375S161.129 445 182.875 445Z" fill="#E37400"/></symbol><symbol _ngcontent-bhq-c269="" fill="none" viewBox="0 0 600 600" id="invision" xmlns="http://www.w3.org/2000/svg"><path _ngcontent-bhq-c269="" d="M0 300C0 134.315 134.315 0 300 0s300 134.315 300 300-134.315 300-300 300S0 465.685 0 300Z" fill="#F36"/><path _ngcontent-bhq-c269="" d="M215.844 189.774c15.256 0 28.037-12.685 28.037-29.31 0-16.614-12.781-29.297-28.037-29.297-15.257 0-28.034 12.683-28.034 29.297 0 16.623 12.777 29.31 28.034 29.31Zm-58.132 156.935c-1.648 7.436-2.474 15.465-2.474 22.015 0 25.809 13.193 42.943 41.23 42.943 23.252 0 42.103-14.648 55.676-38.301l-8.288 35.284h46.172l26.39-112.279c6.597-28.428 19.378-43.184 38.758-43.184 15.254 0 24.736 10.064 24.736 26.678 0 4.814-.412 10.057-2.062 15.745l-13.607 51.609c-2.061 7.436-2.882 14.876-2.882 21.868 0 24.501 13.601 42.422 42.051 42.422 24.326 0 43.702-16.612 54.423-56.415l-18.14-7.428c-9.071 26.665-16.905 31.486-23.09 31.486-6.185 0-9.484-4.371-9.484-13.113 0-3.937.828-8.305 2.062-13.566l13.196-50.279c3.297-11.806 4.536-22.276 4.536-31.895 0-37.613-21.442-57.244-47.415-57.244-24.324 0-49.065 23.276-61.431 47.773l9.068-43.969h-70.499l-9.896 38.728h32.985l-20.312 86.265c-15.95 37.613-45.249 38.224-48.926 37.351-6.038-1.445-9.9-3.878-9.9-12.2 0-4.802.825-11.7 2.886-20.016l30.926-130.128h-78.337l-9.896 38.728h32.569l-21.024 91.122" fill="#fff"/></symbol><symbol _ngcontent-bhq-c269="" fill="none" viewBox="0 0 600 600" id="lookback" xmlns="http://www.w3.org/2000/svg"><path _ngcontent-bhq-c269="" d="M0 300C0 134.315 134.315 0 300 0s300 134.315 300 300-134.315 300-300 300S0 465.685 0 300Z" fill="#182D40"/><path _ngcontent-bhq-c269="" fill-rule="evenodd" clip-rule="evenodd" d="M133.199 287.579c0-75.368 59.689-171.079 172.195-171.079 55.88 0 97.403 23.546 124.295 57.18 26.594 33.26 38.555 75.915 36.98 114.458-3.127 76.492-56.721 144.391-99.399 192.74-4.995 5.658-13.632 6.196-19.291 1.201-5.658-4.995-6.196-13.631-1.201-19.29 43.127-48.856 89.895-110.081 92.58-175.768 1.331-32.546-8.889-68.598-31.017-96.272-21.829-27.3-55.569-46.916-102.947-46.916-94.013 0-144.861 79.837-144.861 143.746 0 50.796 20.916 110.794 76.885 146.898-7.361-14.052-10.979-28.713-9.925-42.785.093-1.238.222-2.467.389-3.686-15.963-16.117-25.603-37.306-25.603-61.98 0-17.23 4.788-32.582 13.149-45.508-5.792-11.896-6.605-22.679-6.605-27.758 0-31.58 24.923-53.506 54.441-64.016 22.22-7.911 49.202-10.415 76.808-6.131-1.416-6.02 1.415-12.444 7.186-15.337 6.748-3.382 14.959-.653 18.341 6.095l11.635 23.213a13.666 13.666 0 0 1-4.287 17.254l-20.361 14.508c-6.147 4.38-14.681 2.947-19.061-3.2-3.474-4.876-3.291-11.255.002-15.87-22.495-3.125-43.983-.875-61.096 5.218-24.474 8.714-36.274 23.421-36.274 38.266 0 1.115.083 2.946.468 5.245 19.752-14.807 45.902-22.538 73.853-22.538 20.744 0 38.434 4.366 51.811 11.63 13.041 7.082 23.536 17.892 26.144 31.356 2.857 14.755-4.578 27.857-17.712 36.113-12.576 7.905-30.954 12.07-54.425 12.07-39.775 0-65.751-9.433-82.325-22.948-2.835 6.732-4.359 14.197-4.359 22.338 0 12.223 3.689 23.8 10.517 33.832 3.166-3.814 6.925-7.31 11.287-10.411 14.452-10.276 34.443-15.491 59.154-15.325 24.083.163 42.698 4.162 55.591 11.429 13.179 7.427 21.855 19.467 20.26 34.059-1.472 13.473-11.295 24.131-23.122 30.919-12.182 6.993-28.347 11.135-47.003 11.135-21.893 0-42.489-4.757-59.992-13.411 4.448 16.71 17.956 36.278 41.496 52.277a13.666 13.666 0 0 1 4.765 16.944 13.665 13.665 0 0 1-15.882 7.587c-113.718-29.525-153.484-123.345-153.484-197.482ZM259.869 379c14.538 9.549 33.758 15.331 56.427 15.331 14.794 0 26.08-3.308 33.396-7.507 7.672-4.404 9.394-8.683 9.558-10.184l.001-.013c.048-.431.377-3.383-6.51-7.264-7.24-4.081-20.623-7.762-42.355-7.908-21.104-.142-34.837 4.371-43.132 10.269-3.038 2.16-5.485 4.597-7.385 7.276Zm-9.379-97.132c10.349 8.776 29.599 17.434 65.806 17.434 20.886 0 33.413-3.814 39.88-7.878 5.909-3.714 5.655-6.57 5.422-7.774-.483-2.495-3.35-7.644-12.352-12.532-8.665-4.705-21.699-8.318-38.768-8.318-23.731 0-44.243 6.75-58.501 17.874-.503.392-.999.79-1.487 1.194Z" fill="#E7B03F"/></symbol><symbol _ngcontent-bhq-c269="" fill="none" viewBox="0 0 600 600" id="maze" xmlns="http://www.w3.org/2000/svg"><path _ngcontent-bhq-c269="" d="M0 300C0 134.315 134.315 0 300 0s300 134.315 300 300-134.315 300-300 300S0 465.685 0 300Z" fill="#2D66F4"/><path _ngcontent-bhq-c269="" fill-rule="evenodd" clip-rule="evenodd" d="M129.687 371.447c-23.583-23.485-23.583-61.562.001-85.047l64.055-63.786c19.937-19.853 50.345-22.924 73.52-9.211 7.169 4.241 7.107 13.971 1.21 19.842-5.895 5.871-15.52 5.366-23.523 3.035-10.248-2.985-21.773-.453-29.855 7.596l-64.055 63.786c-11.792 11.743-11.793 30.781-.001 42.524 11.792 11.743 30.911 11.743 42.703 0l128.109-127.571c23.585-23.485 61.821-23.485 85.406-.001l64.055 63.786c23.584 23.485 23.584 61.562 0 85.047s-61.821 23.485-85.406 0l-21.351-21.261-26.689 26.577c-19.937 19.853-50.345 22.923-73.521 9.211-7.169-4.241-7.106-13.971-1.21-19.842 5.896-5.872 15.52-5.367 23.524-3.036 10.248 2.985 21.773.453 29.855-7.595l27.452-27.337c11.371-11.323 29.807-11.323 41.178 0l22.114 22.022c11.792 11.742 30.91 11.742 42.702 0 11.792-11.743 11.792-30.781 0-42.524l-64.055-63.786c-11.792-11.742-30.91-11.742-42.702.001L215.094 371.448c-23.585 23.485-61.823 23.485-85.407-.001Z" fill="#fff"/></symbol><symbol _ngcontent-bhq-c269="" fill="none" viewBox="0 0 600 600" id="miro" xmlns="http://www.w3.org/2000/svg"><path _ngcontent-bhq-c269="" d="M0 300C0 134.315 134.315 0 300 0s300 134.315 300 300-134.315 300-300 300S0 465.685 0 300Z" fill="#FFD02F"/><path _ngcontent-bhq-c269="" d="M375.325 154h-42.651l37.865 58.683L290.488 154h-42.651l37.865 76.896L205.651 154H163l37.241 99.27L163 447h42.651l80.051-207.722L247.837 447h42.651l80.051-225.926L332.674 447h42.651L456 198.824 375.325 154Z" fill="#050038"/></symbol><symbol _ngcontent-bhq-c269="" fill="none" viewBox="0 0 600 600" id="principle" xmlns="http://www.w3.org/2000/svg"><path _ngcontent-bhq-c269="" d="M0 300C0 134.315 134.315 0 300 0s300 134.315 300 300-134.315 300-300 300S0 465.685 0 300Z" fill="#7526C2"/><path _ngcontent-bhq-c269="" fill-rule="evenodd" clip-rule="evenodd" d="M195.508 411.262v-150.56c0-63.21 51.259-114.452 114.491-114.452 63.231 0 114.49 51.242 114.49 114.452 0 62.379-49.92 113.102-112.002 114.426v.027c-17.87 0-32.356-14.481-32.356-32.345 0-17.698 14.218-32.076 31.859-32.342v-.043c26.569-1.045 47.787-22.907 47.787-49.723 0-27.482-22.287-49.762-49.778-49.762-27.492 0-49.779 22.28-49.779 49.762v166.703c0 17.864-14.486 32.345-32.356 32.345a32.211 32.211 0 0 1-18.595-5.872c9.306-2.719 16.106-11.314 16.106-21.497 0-12.367-10.029-22.393-22.4-22.393-2.619 0-5.132.449-7.467 1.274Zm116.979-46.06c12.371 0 22.401-10.026 22.401-22.392 0-12.367-10.03-22.393-22.401-22.393-12.37 0-22.4 10.026-22.4 22.393 0 12.366 10.03 22.392 22.4 22.392Z" fill="#fff"/></symbol><symbol _ngcontent-bhq-c269="" fill="none" viewBox="0 0 600 600" id="protopie" xmlns="http://www.w3.org/2000/svg"><path _ngcontent-bhq-c269="" d="M0 300C0 134.315 134.315 0 300 0s300 134.315 300 300-134.315 300-300 300S0 465.685 0 300Z" fill="#05060F"/><path _ngcontent-bhq-c269="" fill-rule="evenodd" clip-rule="evenodd" d="M171.201 196.205c-2.88 0-5.519 1.215-7.31 3.206a9.771 9.771 0 0 0-2.688 6.472c0 2.748.798 5.28 2.758 7.239l31.867 37.834 99.792 118.433v95.653A25.246 25.246 0 0 0 313.061 458c.02 0 .02 0 .02-.02l114.436-135.853c.823-.823 1.43-1.919 1.843-2.993a9.597 9.597 0 0 0 .683-3.622V206.205c0-2.635-1.023-5.056-2.706-6.812-1.81-1.973-4.412-3.188-7.315-3.188H171.201Z" fill="#FF5F5F"/><path _ngcontent-bhq-c269="" fill-rule="evenodd" clip-rule="evenodd" d="M295.625 424.143v40.897c-6.774 0-12.921-2.689-17.44-7.045-.018 0-.018 0-.018-.015l-3.386-4.034-82.732-98.196-28.156-33.428a.39.39 0 0 1-.162-.18l-.448-.517c-.035-.038-.055-.073-.087-.111-.541-.732-1.006-1.523-1.311-2.383a9.504 9.504 0 0 1-.68-3.278v-.68c0-.215.018-.433.055-.648.195-2.255 1.163-4.267 2.633-5.842a9.968 9.968 0 0 1 7.31-3.188h24.432l11.489 13.636 30.844 36.619 50.574 60.023 7.066 8.387.017-.017Z" fill="#FCD1CA"/><path _ngcontent-bhq-c269="" fill-rule="evenodd" clip-rule="evenodd" d="M295.625 369.395v54.743l-.017.017-7.057-8.385-50.574-60.017-30.85-36.612-11.492-13.645-31.928-37.875a9.192 9.192 0 0 1-.401-.488 9.765 9.765 0 0 1-1.43-2.52 9.834 9.834 0 0 1-.671-3.307v-.674c.067-2.502 1.075-4.755 2.688-6.466a9.836 9.836 0 0 1 7.31-3.212h24.633l11.509 13.659 34.447 40.883 11.492 13.645 30.85 36.612 11.491 13.642Z" fill="#FF9D8D"/></symbol><symbol _ngcontent-bhq-c269="" fill="none" viewBox="0 0 600 600" id="sketch" xmlns="http://www.w3.org/2000/svg"><path _ngcontent-bhq-c269="" d="M0 300C0 134.315 134.315 0 300 0s300 134.315 300 300-134.315 300-300 300S0 465.685 0 300Z" fill="#EFAD4E"/><path _ngcontent-bhq-c269="" d="M300.142 154.069a9.413 9.413 0 0 1 2.318.005l85.243 10.758c8.533 1.179 9.804 1.542 14.161 6.804l66.319 90.508a9.399 9.399 0 0 1-.321 11.522L348.6 418.782l-40.899 48.85c-3.776 4.51-10.723 4.487-14.468-.049l-40.302-48.801-120.776-146.09a9.395 9.395 0 0 1-.258-11.649l67.858-89.902c2.425-3.746 5.658-5.582 11.611-6.243l88.776-10.829Zm20.465 21.326a1.479 1.479 0 0 0-2.018-.115 1.589 1.589 0 0 0-.358 1.999l.127.19 52.435 67.263c.508.652.785 1.463.785 2.299 0 1.926-1.439 3.505-3.27 3.658l-.292.012h-135.02a3.497 3.497 0 0 1-2.231-.809c-1.448-1.199-1.747-3.326-.738-4.89l.192-.27 52.435-67.263a1.592 1.592 0 0 0-.112-2.079 1.478 1.478 0 0 0-1.968-.146l-.169.151-71.035 73.599a2.805 2.805 0 0 1-2.155.862c-1.479-.072-2.642-1.295-2.711-2.789l-.001-.283 2.451-53.31c.032-.712-.435-1.345-1.109-1.502-.704-.164-1.404.24-1.649.917l-.055.191-13.46 61.359c-.46 2.099-1.994 3.76-3.981 4.349l-.377.098-33.326 7.399a1.459 1.459 0 0 0-1.125 1.435c0 .744.536 1.358 1.232 1.455l.193.014h33.243c1.933 0 3.725 1.008 4.772 2.662l.2.339 79.746 146.592c.548 1.008 1.759 1.408 2.774.916.997-.483 1.463-1.658 1.112-2.707l-.087-.223-64.47-141.3a4.531 4.531 0 0 1-.406-1.875c0-2.327 1.751-4.232 3.969-4.393l.305-.011h172.101c.629 0 1.25.142 1.819.418 2.044.99 2.972 3.434 2.17 5.571l-.12.29-64.47 141.3c-.477 1.045-.089 2.293.889 2.858.961.555 2.16.263 2.785-.641l.125-.203L409.5 272.19c.945-1.738 2.675-2.855 4.587-2.988l.384-.013h33.243c.671 0 1.252-.483 1.393-1.16.152-.726-.246-1.443-.906-1.689l-.187-.055-33.325-7.399c-2.041-.453-3.668-2.017-4.26-4.058l-.099-.389-13.459-61.359c-.152-.694-.767-1.176-1.457-1.142-.721.035-1.291.616-1.352 1.336l-.004.2 2.45 53.31a2.986 2.986 0 0 1-.837 2.221 2.788 2.788 0 0 1-3.814.191l-.216-.202-71.034-73.599Z" fill="#000"/></symbol><symbol _ngcontent-bhq-c269="" fill="none" viewBox="0 0 600 600" id="spline" xmlns="http://www.w3.org/2000/svg"><path _ngcontent-bhq-c269="" d="M336.385 597.816C484.911 579.859 599.999 453.369 599.999 300c0-87.844-37.755-166.869-97.923-221.734-107.097 36.556-106.019 197.341-105.28 307.624.129 19.21.247 36.888-.218 52.11-1.706 55.812-19.28 115.482-60.193 159.816Z" fill="#F83CF2"/><path _ngcontent-bhq-c269="" d="M349.441 595.945A302.08 302.08 0 0 1 300 600c-135.521 0-250.054-89.86-287.266-213.247 2.453.135 4.875.665 7.221 1.683 74.826 32.45 107.389 19.693 137.604-59.284 13.239-34.603 24.493-69.95 35.744-105.287 13.727-43.117 27.451-86.221 44.77-127.943.593-1.428 1.186-2.861 1.781-4.298 15.747-38.049 32.464-78.441 70.831-91.437 74.629 2.612 142.327 32.484 193.441 79.965-65.59 50.534-78.43 124.614-89.345 201.325-4.755 33.421-6.872 67.077-8.988 100.725-2.922 46.473-5.843 92.931-15.715 138.733-6.621 30.714-17.89 57.067-40.637 75.01Z" fill="#4480FD"/><path _ngcontent-bhq-c269="" d="M.2 288.933c48.325 10.558 79.224-11.26 100.171-58.478 12.8-28.851 27.173-57.011 41.548-85.175 9.798-19.197 19.597-38.395 28.899-57.816 15.946-33.29 36.561-61.302 66.094-80.819C257.253 2.291 278.359 0 300 0c11.344 0 22.541.63 33.558 1.856-46.977 13.674-65.234 58.531-81.973 100.368-18.658 46.63-33.72 94.701-48.782 142.772-6.489 20.708-12.977 41.417-19.753 62.01-1.118 3.397-2.197 6.81-3.276 10.223-2.644 8.361-5.289 16.724-8.501 24.86-35.449 89.788-84.088 108.292-154.197 57.925C6.017 368.732 0 335.069 0 300c0-3.705.067-7.395.2-11.067Z" fill="#40ECCB"/><path _ngcontent-bhq-c269="" d="M12.72 213.29c40.84-12.861 66.371-43.081 87.688-80.437 2.936-5.144 5.836-10.326 8.74-15.514 17.651-31.533 35.431-63.297 62.048-88.359a297.82 297.82 0 0 1 77.939-24.686C207.108 43.27 183.006 93.97 158.872 144.74c-3.398 7.147-6.797 14.296-10.246 21.414a3158.579 3158.579 0 0 0-9.252 19.317c-13.709 28.79-27.469 57.685-44.838 84.119-30.8 46.872-50.486 51.619-94.46 23.545.622-27.705 5-54.483 12.645-79.845Z" fill="#E75DE6"/><path _ngcontent-bhq-c269="" d="M10.375 221.502C34.448 132.468 98.48 59.85 182.04 24.08c-8.393 13.806-16.697 27.673-25.001 41.54-24.435 40.806-48.871 81.613-75.588 120.863-16.203 23.805-36.691 51.285-71.076 35.019Z" fill="#FEC325"/></symbol><symbol _ngcontent-bhq-c269="" viewBox="0 0 24 24" id="tool-placeholder" xmlns="http://www.w3.org/2000/svg"><path _ngcontent-bhq-c269="" fill-rule="evenodd" clip-rule="evenodd" d="M3.116 4.2v15.6h10.088V4.2H3.116Zm11.888 15.6h6.419V8.343h-6.42V19.8Zm0-13.257V4.049a1.65 1.65 0 0 0-1.65-1.65H2.966a1.65 1.65 0 0 0-1.65 1.65v15.902c0 .91.74 1.65 1.65 1.65h18.607a1.65 1.65 0 0 0 1.65-1.65V8.193a1.65 1.65 0 0 0-1.65-1.65h-6.57Z"/><path _ngcontent-bhq-c269="" d="M17.45 10.757a.375.375 0 0 0-.376.375v1.5c0 .207.168.375.375.375h1.5a.375.375 0 0 0 .375-.375v-1.5a.375.375 0 0 0-.375-.375h-1.5ZM17.45 15.231a.375.375 0 0 0-.376.375v1.5c0 .207.168.375.375.375h1.5a.375.375 0 0 0 .375-.375v-1.5a.375.375 0 0 0-.375-.375h-1.5ZM5.247 6.282a.375.375 0 0 0-.375.375v1.5c0 .207.168.375.375.375h1.5a.375.375 0 0 0 .375-.375v-1.5a.375.375 0 0 0-.375-.375h-1.5ZM9.337 6.282a.375.375 0 0 0-.375.375v1.5c0 .207.168.375.375.375h1.5a.375.375 0 0 0 .375-.375v-1.5a.375.375 0 0 0-.375-.375h-1.5ZM4.872 11.132c0-.207.168-.375.375-.375h1.5c.207 0 .375.168.375.375v1.5a.375.375 0 0 1-.375.375h-1.5a.375.375 0 0 1-.375-.375v-1.5ZM5.247 15.231a.375.375 0 0 0-.375.375v1.5c0 .207.168.375.375.375h1.5a.375.375 0 0 0 .375-.375v-1.5a.375.375 0 0 0-.375-.375h-1.5ZM8.962 11.132c0-.207.168-.375.375-.375h1.5c.207 0 .375.168.375.375v1.5a.375.375 0 0 1-.375.375h-1.5a.375.375 0 0 1-.375-.375v-1.5ZM9.337 15.231a.375.375 0 0 0-.375.375v1.5c0 .207.168.375.375.375h1.5a.375.375 0 0 0 .375-.375v-1.5a.375.375 0 0 0-.375-.375h-1.5Z"/></symbol><symbol _ngcontent-bhq-c269="" fill="none" viewBox="0 0 600 600" id="usertesting" xmlns="http://www.w3.org/2000/svg"><path _ngcontent-bhq-c269="" d="M0 300C0 134.315 134.315 0 300 0s300 134.315 300 300-134.315 300-300 300S0 465.685 0 300Z" fill="#315CFD"/><g _ngcontent-bhq-c269="" clip-path="url(#va)"><path _ngcontent-bhq-c269="" d="M217.249 149.35h166.566c31.071 0 55.507 24.045 54.339 53.562v179.216c0 29.471-24.389 53.516-54.385 53.516h-36.631L367.135 499l-96.575-63.356h-53.264c-31.071 0-55.507-24.045-55.507-54.62V202.958c-.046-29.563 24.39-53.608 55.46-53.608Zm64.711 196.686c-5.653-3.08-10.186-7.54-13.596-13.425-3.411-5.885-5.093-12.965-5.093-21.195v-95.493c0-1.471-.327-2.62-1.028-3.356-.654-.782-1.775-1.149-3.364-1.149h-24.81c-.56 0-1.121.092-1.635.321-.514.23-.981.552-1.308 1.012a4.505 4.505 0 0 0-1.168 3.218v95.079c0 15.219 3.177 27.954 9.531 38.299 6.354 10.298 14.858 17.976 25.604 23.034 10.7 5.057 22.661 7.54 35.836 7.54 13.223 0 25.184-2.483 35.883-7.402 10.7-4.92 19.203-12.506 25.558-22.805 6.354-10.298 9.531-23.08 9.531-38.344v-95.355c0-.597-.093-1.195-.327-1.793-.233-.552-.561-1.103-.981-1.517-.888-.874-2.056-1.333-3.551-1.333H343.4c-1.401 0-2.569.413-3.41 1.287-.888.874-1.309 1.977-1.309 3.356v95.401c0 7.678-1.682 14.529-5.046 20.46-3.364 5.977-7.896 10.574-13.643 13.839-5.747 3.264-12.101 4.873-19.016 4.873-7.055.046-13.363-1.471-19.016-4.552Z" fill="#fff"/></g><defs _ngcontent-bhq-c269=""><clipPath _ngcontent-bhq-c269="" id="va"><path _ngcontent-bhq-c269="" fill="#fff" transform="translate(111 121)" d="M0 0h378v378H0z"/></clipPath></defs></symbol><symbol _ngcontent-bhq-c269="" fill="none" viewBox="0 0 600 600" id="uxpin" xmlns="http://www.w3.org/2000/svg"><path _ngcontent-bhq-c269="" d="M0 300C0 134.315 134.315 0 300 0s300 134.315 300 300-134.315 300-300 300S0 465.685 0 300Z" fill="#05060F"/><g _ngcontent-bhq-c269="" clip-path="url(#wa)"><path _ngcontent-bhq-c269="" fill-rule="evenodd" clip-rule="evenodd" d="M147.151 63.333h305.695c46.347 0 83.819 38.433 83.819 85.969v301.396c0 47.535-37.472 85.968-83.819 85.968H147.151c-46.347 0-83.819-38.433-83.819-85.968V149.302c0-47.536 37.472-85.969 83.819-85.969Z" fill="#05060F"/><path _ngcontent-bhq-c269="" d="M128.317 221.528v107.585c0 4.627 0 9.255.383 13.496.384 4.242 1.151 8.098 2.302 11.183 1.535 3.085 3.453 5.399 6.522 7.327 2.686 1.928 6.906 2.699 12.278 2.699 8.44 0 14.579-2.699 17.648-7.712 3.07-5.013 4.988-13.882 4.988-25.836V221.143h16.881v107.97c0 2.699 0 5.784-.384 9.64 0 2.374-.359 4.928-.708 7.416a118.24 118.24 0 0 0-.443 3.381c-.767 3.471-1.918 7.327-3.453 10.797-1.534 3.471-3.836 6.556-6.905 9.255-3.07 2.699-6.523 5.013-11.127 6.555-4.604 1.543-9.975 2.7-16.881 2.7-9.592 0-16.881-1.543-22.252-4.628-5.372-3.085-9.208-6.941-11.51-11.568-2.302-4.627-3.837-10.026-4.221-15.81-.383-5.784-.767-11.568-.767-17.352V221.528h17.649ZM205.048 221.143h18.8l20.717 55.527 21.486-55.527h17.265l-30.31 70.952 34.146 83.291h-19.95l-24.555-64.011-24.554 64.397h-17.265l33.762-80.593-29.542-74.036Z" fill="#fff"/><path _ngcontent-bhq-c269="" fill-rule="evenodd" clip-rule="evenodd" d="M332.053 221.143h-29.925v154.243h17.648v-62.854h14.963c8.057 0 14.579-1.157 19.951-3.471 5.371-2.699 9.591-5.784 13.044-10.026 3.453-4.241 5.755-9.254 7.29-14.653 1.535-5.398 2.302-11.182 2.302-17.352 0-4.627 0-8.869-.767-12.34-.384-3.47-1.151-6.555-2.302-9.254s-2.302-5.013-3.453-6.941c-1.151-1.928-2.302-3.47-3.453-5.013-4.221-5.013-9.208-8.483-14.58-10.026-5.755-1.542-12.661-2.313-20.718-2.313Zm2.302 76.736h-14.963v-61.312h13.429c2.302 0 4.604 0 7.673.386a19.3 19.3 0 0 1 8.824 3.47c2.686 1.928 5.372 5.013 7.29 9.255 1.918 4.241 3.069 10.411 3.069 18.123 0 6.17-.767 11.568-1.918 15.424-1.151 3.857-3.069 6.941-5.371 9.255-2.302 1.928-4.988 3.471-8.057 4.242-3.07.771-6.523 1.157-9.976 1.157Z" fill="#fff"/><path _ngcontent-bhq-c269="" d="M408.019 221.143v19.666h-17.28v-19.666h17.28ZM391.507 261.246h15.744v114.14h-15.744v-114.14ZM439.847 261.246h-13.812v114.14h15.731v-65.939c0-3.085 0-6.941.383-11.183a59.937 59.937 0 0 1 2.302-11.954c1.151-3.47 3.07-6.555 5.372-9.254 2.685-2.7 5.755-3.856 9.975-3.856 3.453 0 6.138.771 8.057 2.699 1.918 1.928 3.453 4.241 4.22 6.941.767 3.085 1.535 6.169 1.535 9.64.383 3.856.383 7.326.383 10.797v72.109h15.347v-72.495c0-6.555 0-12.725-.384-18.509-.383-6.17-1.534-10.797-3.453-14.267-1.534-3.471-4.604-6.17-8.057-8.484-3.453-1.928-7.673-3.085-12.661-3.085-4.22 0-7.673.772-10.742 2.314-2.686 1.543-5.371 3.471-7.29 5.784-1.918 1.928-3.453 4.242-4.604 6.556-1.151 2.313-1.918 4.241-2.302 5.398v-17.352Z" fill="#fff"/></g><defs _ngcontent-bhq-c269=""><clipPath _ngcontent-bhq-c269="" id="wa"><path _ngcontent-bhq-c269="" fill="#fff" transform="translate(16 16)" d="M0 0h568v568H0z"/></clipPath></defs></symbol><symbol _ngcontent-bhq-c269="" fill="none" viewBox="0 0 600 600" id="webflow" xmlns="http://www.w3.org/2000/svg"><path _ngcontent-bhq-c269="" d="M0 300C0 134.315 134.315 0 300 0s300 134.315 300 300-134.315 300-300 300S0 465.685 0 300Z" fill="#4353FF"/><path _ngcontent-bhq-c269="" d="M391.497 261.449s-25.95 81.3-27.9 88.2c-.75-6.9-19.65-153-19.65-153-44.25 0-67.8 31.35-80.25 64.8 0 0-31.5 81.6-34.05 88.5-.15-6.45-4.8-87.6-4.8-87.6-2.7-40.8-39.9-65.55-70.05-65.55l36.3 221.4c46.35-.15 71.25-31.5 84.3-64.8 0 0 27.75-72 28.95-75.3.3 3.15 19.95 140.1 19.95 140.1 46.35 0 71.4-29.4 84.9-61.5l64.8-160.05c-45.9 0-70.05 31.35-82.5 64.8Z" fill="#fff"/></symbol><symbol _ngcontent-bhq-c269="" fill="none" viewBox="0 0 600 600" id="whimsical" xmlns="http://www.w3.org/2000/svg"><path _ngcontent-bhq-c269="" d="M0 300C0 134.315 134.315 0 300 0s300 134.315 300 300-134.315 300-300 300S0 465.685 0 300Z" fill="#9E3AE3"/><path _ngcontent-bhq-c269="" d="m299.903 396.721.087-.087 34.298 34.298c6.574 6.574 17.232 6.574 23.806 0l119.03-119.029c6.574-6.574 6.574-17.232 0-23.806l-119.03-119.03c-6.574-6.574-17.232-6.574-23.806 0l-34.298 34.298-.108-.107-23.806 23.806.108.107-60.926 60.926c-6.573 6.574-6.573 17.232 0 23.806l60.926 60.925-.087.087 23.806 23.806Z" fill="#fff"/><path _ngcontent-bhq-c269="" d="m276.458 372.528-22.673 22.695L158.561 300l95.224-95.224 23.036 22.483 23.806-23.806-34.939-34.386c-6.574-6.574-17.232-6.574-23.806 0l-119.03 119.03c-6.574 6.574-6.574 17.232 0 23.806l119.03 119.029c6.574 6.574 17.232 6.574 23.806 0l34.576-34.598-23.806-23.806Z" fill="#fff" fill-opacity=".72"/></symbol><symbol _ngcontent-bhq-c269="" fill="none" viewBox="0 0 600 600" id="zeplin" xmlns="http://www.w3.org/2000/svg"><path _ngcontent-bhq-c269="" d="M0 300C0 134.315 134.315 0 300 0s300 134.315 300 300-134.315 300-300 300S0 465.685 0 300Z" fill="#EE6723"/><path _ngcontent-bhq-c269="" d="M323.978 381.182a312.434 312.434 0 0 1-4.15-16.637c4.45 5.141 8.85 9.984 13.155 14.474-3.03.797-6.034 1.516-9.005 2.163Z" fill="#fff"/><path _ngcontent-bhq-c269="" fill-rule="evenodd" clip-rule="evenodd" d="M347.517 405.252c2.158-7.438 3.87-15.472 5.121-21.733.928.887 1.85 1.755 2.766 2.603 7.683 7.111 14.584 12.559 20.649 16.246 6.003 3.648 11.497 5.764 16.294 5.764 2.803 0 5.41-.726 7.626-2.272 3.32-2.318 4.975-5.901 5.609-9.817.629-3.884.306-8.355-.544-12.967-1.703-9.235-5.676-19.798-9.693-28.939l-.634-1.438c48.744-29.4 76.162-71.007 64.04-104.204-12.313-33.697-61.982-48.031-119.847-38.217l-.144-.49a277.22 277.22 0 0 1-.721-2.51c-1.58-5.558-4.159-14.635-7.959-22.635-2.224-4.685-4.968-9.231-8.351-12.556-3.42-3.361-7.709-5.669-12.841-5.261l-.024.002c-6.286.55-11.195 6.305-14.6 13.674-2.999 6.491-5.224 15.024-6.343 24.876-6.446-5.584-11.865-9.49-16.42-12.169-6.731-3.959-11.75-5.342-15.518-5.342-2.791 0-5.388.722-7.6 2.262-5.107 3.566-6.541 10.107-5.77 17.941.781 7.944 3.891 18.184 9.137 30.561 8.044 18.967 20.536 41.42 35.743 64.414a468.922 468.922 0 0 0 2.62 23.646 625.261 625.261 0 0 1-3.384-4.765c-18.319-26.064-33.561-52.129-43.251-73.915-20.42 13.709-36.415 29.578-46.405 45.772l-58.659 21.27 32.909 37.667-.911 49.926 58.524-21.217s30.935 8.182 72.773 3.424a192.253 192.253 0 0 0 1.5 5.035c3.068 9.787 6.455 19.177 10.626 26.261 4.109 6.98 9.474 12.55 16.793 13.064 2.452.172 4.567-.838 6.263-2.279 1.667-1.416 3.094-3.376 4.331-5.541 2.477-4.337 4.561-10.163 6.295-16.141Zm-20.925-192.545c-3.252-11.022-6.861-20.146-10.248-26.097-1.575-2.758-3.043-4.745-4.307-6.001-.629-.624-1.147-1.008-1.541-1.225-.312-.172-.487-.207-.543-.214-.076.028-.5.198-1.218 1.04-.867 1.016-1.911 2.727-3.007 5.372-2.186 5.278-4.378 13.769-5.96 26.451-.706 5.646-.974 11.365-1.426 17.126l-.247 3.124-.056-.055c-1.022 19.729-.512 42.664 1.548 66.609a590.17 590.17 0 0 0 12.334 17.715 588.587 588.587 0 0 1-1.664-16.325c-2.698-30.77-2.861-60.011-.494-83.109a248.554 248.554 0 0 1 16.829-4.411Zm30.919 158.248a248.106 248.106 0 0 0 6.338 6.086c18.959 17.558 26.801 18.739 28.396 18.739.378 0 .557-.053.614-.074.056-.066.366-.454.566-1.665.236-1.427.242-3.596-.221-6.657-.923-6.106-3.625-15.211-9.2-27.9l-.254-.575a251.534 251.534 0 0 1-26.239 12.046Zm-15.549 3.877c0-.722.012-1.397.037-2.029-12.845-13.573-26.431-30.125-39.622-48.293 3.092 23.457 7.464 44.81 12.686 61.718 3.139 10.171 6.537 18.396 9.781 23.854.245.414.483.837.723 1.264.672 1.198 1.361 2.423 2.278 3.548 1.023 1.254 1.881 1.796 2.642 1.913.059-.062.13-.14.212-.239.494-.592 1.117-1.569 1.83-2.959 1.413-2.754 2.945-6.673 4.363-11.178 2.848-9.044 5.07-19.903 5.07-27.599Zm-55.403-149.543c.071-1.421.145-2.822.222-4.201-9.348-8.918-16.234-14.081-21.159-17.041-5.712-3.434-8.616-3.801-9.564-3.801-.288 0-.467.029-.559.053-.079.103-.339.486-.522 1.48-.241 1.31-.287 3.31.091 6.147.754 5.658 3.116 14.103 8.11 25.876.276.651.557 1.306.845 1.966a249.308 249.308 0 0 1 22.536-10.479Z" fill="#fff"/><path _ngcontent-bhq-c269="" d="M323.978 381.182a312.434 312.434 0 0 1-4.15-16.637c4.45 5.141 8.85 9.984 13.155 14.474-3.03.797-6.034 1.516-9.005 2.163Z" fill="#fff"/><path _ngcontent-bhq-c269="" fill-rule="evenodd" clip-rule="evenodd" d="M347.517 405.252c2.158-7.438 3.87-15.472 5.121-21.733.928.887 1.85 1.755 2.766 2.603 7.683 7.111 14.584 12.559 20.649 16.246 6.003 3.648 11.497 5.764 16.294 5.764 2.803 0 5.41-.726 7.626-2.272 3.32-2.318 4.975-5.901 5.609-9.817.629-3.884.306-8.355-.544-12.967-1.703-9.235-5.676-19.798-9.693-28.939l-.634-1.438c48.744-29.4 76.162-71.007 64.04-104.204-12.313-33.697-61.982-48.031-119.847-38.217l-.144-.49a277.22 277.22 0 0 1-.721-2.51c-1.58-5.558-4.159-14.635-7.959-22.635-2.224-4.685-4.968-9.231-8.351-12.556-3.42-3.361-7.709-5.669-12.841-5.261l-.024.002c-6.286.55-11.195 6.305-14.6 13.674-2.999 6.491-5.224 15.024-6.343 24.876-6.446-5.584-11.865-9.49-16.42-12.169-6.731-3.959-11.75-5.342-15.518-5.342-2.791 0-5.388.722-7.6 2.262-5.107 3.566-6.541 10.107-5.77 17.941.781 7.944 3.891 18.184 9.137 30.561 8.044 18.967 20.536 41.42 35.743 64.414a468.922 468.922 0 0 0 2.62 23.646 625.261 625.261 0 0 1-3.384-4.765c-18.319-26.064-33.561-52.129-43.251-73.915-20.42 13.709-36.415 29.578-46.405 45.772l-58.659 21.27 32.909 37.667-.911 49.926 58.524-21.217s30.935 8.182 72.773 3.424a192.253 192.253 0 0 0 1.5 5.035c3.068 9.787 6.455 19.177 10.626 26.261 4.109 6.98 9.474 12.55 16.793 13.064 2.452.172 4.567-.838 6.263-2.279 1.667-1.416 3.094-3.376 4.331-5.541 2.477-4.337 4.561-10.163 6.295-16.141Zm-20.925-192.545c-3.252-11.022-6.861-20.146-10.248-26.097-1.575-2.758-3.043-4.745-4.307-6.001-.629-.624-1.147-1.008-1.541-1.225-.312-.172-.487-.207-.543-.214-.076.028-.5.198-1.218 1.04-.867 1.016-1.911 2.727-3.007 5.372-2.186 5.278-4.378 13.769-5.96 26.451-.706 5.646-.974 11.365-1.426 17.126l-.247 3.124-.056-.055c-1.022 19.729-.512 42.664 1.548 66.609a590.17 590.17 0 0 0 12.334 17.715 588.587 588.587 0 0 1-1.664-16.325c-2.698-30.77-2.861-60.011-.494-83.109a248.554 248.554 0 0 1 16.829-4.411Zm30.919 158.248a248.106 248.106 0 0 0 6.338 6.086c18.959 17.558 26.801 18.739 28.396 18.739.378 0 .557-.053.614-.074.056-.066.366-.454.566-1.665.236-1.427.242-3.596-.221-6.657-.923-6.106-3.625-15.211-9.2-27.9l-.254-.575a251.534 251.534 0 0 1-26.239 12.046Zm-15.549 3.877c0-.722.012-1.397.037-2.029-12.845-13.573-26.431-30.125-39.622-48.293 3.092 23.457 7.464 44.81 12.686 61.718 3.139 10.171 6.537 18.396 9.781 23.854.245.414.483.837.723 1.264.672 1.198 1.361 2.423 2.278 3.548 1.023 1.254 1.881 1.796 2.642 1.913.059-.062.13-.14.212-.239.494-.592 1.117-1.569 1.83-2.959 1.413-2.754 2.945-6.673 4.363-11.178 2.848-9.044 5.07-19.903 5.07-27.599Zm-55.403-149.543c.071-1.421.145-2.822.222-4.201-9.348-8.918-16.234-14.081-21.159-17.041-5.712-3.434-8.616-3.801-9.564-3.801-.288 0-.467.029-.559.053-.079.103-.339.486-.522 1.48-.241 1.31-.287 3.31.091 6.147.754 5.658 3.116 14.103 8.11 25.876.276.651.557 1.306.845 1.966a249.308 249.308 0 0 1 22.536-10.479Z" fill="#fff"/></symbol></svg>