<svg _ngcontent-bhq-c294="" width="21" height="22" viewBox="0 0 21 22" xmlns="http://www.w3.org/2000/svg" class="profile-info__header-status-icon _inline ng-star-inserted"><path _ngcontent-bhq-c294="" fill-rule="evenodd" clip-rule="evenodd" d="M10.8742 0.178443C10.5313 -0.059481 10.0768 -0.0594808 9.73392 0.178443L7.63495 1.63504C7.47359 1.74702 7.28284 1.809 7.08648 1.81325L4.53221 1.86858C4.11499 1.87762 3.74725 2.1448 3.60972 2.53881L2.76779 4.95097C2.70306 5.1364 2.58517 5.29866 2.42881 5.41752L0.394887 6.96365C0.0626621 7.2162 -0.0778018 7.6485 0.0425303 8.0481L0.779219 10.4945C0.835851 10.6825 0.835851 10.8831 0.779219 11.0711L0.0425302 13.5175C-0.0778019 13.9171 0.0626625 14.3494 0.394888 14.6019L2.42881 16.1481C2.58517 16.2669 2.70306 16.4292 2.76779 16.6146L3.60973 19.0268C3.74725 19.4208 4.11499 19.688 4.53221 19.697L7.08648 19.7523C7.28284 19.7566 7.4736 19.8186 7.63495 19.9306L9.73392 21.3872C10.0768 21.6251 10.5313 21.6251 10.8742 21.3872L12.9732 19.9306C13.1345 19.8186 13.3253 19.7566 13.5216 19.7523L16.0759 19.697C16.4931 19.688 16.8609 19.4208 16.9984 19.0268L17.8403 16.6146C17.905 16.4292 18.0229 16.2669 18.1793 16.1481L20.2132 14.6019C20.5454 14.3494 20.6859 13.9171 20.5656 13.5175L19.8289 11.0711C19.7722 10.8831 19.7722 10.6825 19.8289 10.4945L20.5656 8.04809C20.6859 7.6485 20.5454 7.2162 20.2132 6.96365L18.1793 5.41752C18.0229 5.29866 17.905 5.1364 17.8403 4.95097L16.9984 2.53881C16.8609 2.1448 16.4931 1.87762 16.0759 1.86858L13.5216 1.81325C13.3253 1.809 13.1345 1.74702 12.9732 1.63504L10.8742 0.178443ZM15.7047 8.4525C16.067 8.1115 16.0846 7.5409 15.7443 7.17804C15.4039 6.81517 14.8343 6.79745 14.4721 7.13845L8.55905 12.7052L6.23975 10.1309C5.90671 9.76123 5.33761 9.73202 4.96862 10.0657C4.59963 10.3993 4.57048 10.9694 4.90351 11.3391L7.83808 14.5963C8.00011 14.7762 8.22758 14.8831 8.46921 14.8931C8.71084 14.9031 8.9463 14.8152 9.12253 14.6493L15.7047 8.4525Z" fill="white"/></svg>