<svg width="64" height="64" viewBox="0 0 64 64" fill="none" xmlns="http://www.w3.org/2000/svg">
<path d="M29.9429 1.56952C31.2092 0.810159 32.7909 0.810159 34.0572 1.56952L39.9132 5.08115C40.4323 5.39244 41.0153 5.58186 41.6182 5.63514L48.4199 6.23623C49.8907 6.36621 51.1703 7.29588 51.7484 8.65454L54.4219 14.9376C54.6589 15.4945 55.0192 15.9904 55.4756 16.3879L60.625 20.8721C61.7385 21.8418 62.2272 23.3461 61.8964 24.785L60.3662 31.4395C60.2306 32.0294 60.2306 32.6424 60.3662 33.2323L61.8964 39.8868C62.2272 41.3258 61.7385 42.83 60.625 43.7997L55.4756 48.2839C55.0192 48.6814 54.6589 49.1773 54.4219 49.7343L51.7484 56.0173C51.1703 57.376 49.8907 58.3056 48.4199 58.4356L41.6182 59.0367C41.0153 59.09 40.4323 59.2794 39.9132 59.5907L34.0572 63.1023C32.7909 63.8617 31.2092 63.8617 29.9429 63.1023L24.087 59.5907C23.5679 59.2794 22.9849 59.09 22.382 59.0367L15.5803 58.4356C14.1095 58.3056 12.8299 57.376 12.2518 56.0173L9.57829 49.7343C9.3413 49.1773 8.98099 48.6814 8.52453 48.2839L3.37518 43.7997C2.26167 42.83 1.77291 41.3258 2.1038 39.8868L3.63396 33.2323C3.7696 32.6424 3.7696 32.0294 3.63396 31.4395L2.1038 24.785C1.77291 23.3461 2.26167 21.8418 3.37518 20.8721L8.52453 16.3879C8.98099 15.9904 9.3413 15.4945 9.57829 14.9376L12.2518 8.65454C12.8299 7.29588 14.1095 6.36621 15.5803 6.23623L22.382 5.63514C22.9849 5.58186 23.5679 5.39244 24.087 5.08115L29.9429 1.56952Z" fill="#C3C3C5"/>
<path fill-rule="evenodd" clip-rule="evenodd" d="M39.3989 5.93877L33.5429 2.42714C32.5932 1.85762 31.407 1.85762 30.4572 2.42714L24.6013 5.93877C23.9524 6.32788 23.2237 6.56465 22.47 6.63126L15.6683 7.23234C14.5652 7.32983 13.6055 8.02709 13.1719 9.04608L10.4985 15.3291C10.2022 16.0253 9.75183 16.6452 9.18125 17.1421L4.0319 21.6263C3.19677 22.3535 2.8302 23.4817 3.07837 24.5609L4.60853 31.2154C4.77808 31.9528 4.77808 32.719 4.60853 33.4564L3.07837 40.1109C2.8302 41.1901 3.19677 42.3183 4.0319 43.0456L9.18125 47.5298C9.75183 48.0267 10.2022 48.6466 10.4984 49.3428L13.1719 55.6258C13.6055 56.6448 14.5652 57.342 15.6683 57.4395L22.47 58.0406C23.2237 58.1072 23.9524 58.344 24.6013 58.7331L30.4572 62.2447C31.407 62.8142 32.5932 62.8142 33.5429 62.2447L39.3989 58.7331C40.0478 58.344 40.7765 58.1072 41.5302 58.0406L48.3318 57.4395C49.4349 57.342 50.3946 56.6448 50.8282 55.6258L53.5017 49.3428C53.798 48.6466 54.2483 48.0267 54.8189 47.5298L59.9683 43.0456C60.8034 42.3183 61.17 41.1901 60.9218 40.1109L59.3916 33.4564C59.2221 32.719 59.2221 31.9528 59.3916 31.2155L60.9218 24.5609C61.17 23.4817 60.8034 22.3535 59.9683 21.6263L54.8189 17.1421C54.2483 16.6452 53.798 16.0253 53.5017 15.3291L50.8282 9.04608C50.3946 8.02709 49.4349 7.32983 48.3318 7.23234L41.5302 6.63126C40.7765 6.56465 40.0478 6.32788 39.3989 5.93877ZM34.0572 1.56952C32.7909 0.810159 31.2092 0.810159 29.9429 1.56952L24.087 5.08115C23.5679 5.39244 22.9849 5.58186 22.382 5.63514L15.5803 6.23623C14.1095 6.36621 12.8299 7.29588 12.2518 8.65454L9.57829 14.9376C9.3413 15.4945 8.98099 15.9904 8.52453 16.3879L3.37518 20.8721C2.26167 21.8418 1.77291 23.3461 2.1038 24.785L3.63396 31.4395C3.7696 32.0294 3.7696 32.6424 3.63396 33.2323L2.1038 39.8868C1.77291 41.3258 2.26167 42.83 3.37518 43.7997L8.52453 48.2839C8.98099 48.6814 9.3413 49.1773 9.57829 49.7343L12.2518 56.0173C12.8299 57.376 14.1095 58.3056 15.5803 58.4356L22.382 59.0367C22.9849 59.09 23.5679 59.2794 24.087 59.5907L29.9429 63.1023C31.2092 63.8617 32.7909 63.8617 34.0572 63.1023L39.9132 59.5907C40.4323 59.2794 41.0153 59.09 41.6182 59.0367L48.4199 58.4356C49.8907 58.3056 51.1703 57.376 51.7484 56.0173L54.4219 49.7343C54.6589 49.1773 55.0192 48.6814 55.4756 48.2839L60.625 43.7997C61.7385 42.83 62.2272 41.3258 61.8964 39.8868L60.3662 33.2323C60.2306 32.6424 60.2306 32.0294 60.3662 31.4395L61.8964 24.785C62.2272 23.3461 61.7385 21.8418 60.625 20.8721L55.4756 16.3879C55.0192 15.9904 54.6589 15.4945 54.4219 14.9376L51.7484 8.65454C51.1703 7.29588 49.8907 6.36621 48.4199 6.23623L41.6182 5.63514C41.0153 5.58186 40.4323 5.39244 39.9132 5.08115L34.0572 1.56952Z" fill="#87878C"/>
<path fill-rule="evenodd" clip-rule="evenodd" d="M29.0976 20.8262C29.4606 19.7373 30.4797 19.0028 31.6275 19.0028H32.3331C33.8059 19.0028 34.9998 20.1967 34.9998 21.6694V27.0028H43.1757C45.1581 27.0028 46.4474 29.089 45.5609 30.862L40.2276 41.5287C39.7758 42.4321 38.8525 43.0028 37.8424 43.0028H28.8238C27.8138 43.0028 26.8904 42.4321 26.4387 41.5287L24.3875 37.4264C24.0713 36.7938 24.0192 36.0615 24.2429 35.3905L29.0976 20.8262Z" fill="#EAEAEB"/>
<path fill-rule="evenodd" clip-rule="evenodd" d="M23.0881 27.0712C23.7867 27.3041 24.1642 28.0592 23.9314 28.7577L21.614 35.7099C21.5022 36.0453 21.5282 36.4115 21.6863 36.7278L23.859 41.0732C24.1883 41.7318 23.9214 42.5327 23.2627 42.862C22.6041 43.1913 21.8032 42.9244 21.4739 42.2657L19.3012 37.9204C18.8268 36.9715 18.7487 35.873 19.0842 34.8666L21.4015 27.9145C21.6344 27.2159 22.3895 26.8383 23.0881 27.0712Z" fill="#EAEAEB"/>
<path fill-rule="evenodd" clip-rule="evenodd" d="M28.6233 20.6681C29.0543 19.375 30.2644 18.5028 31.6275 18.5028H32.3331C34.082 18.5028 35.4998 19.9205 35.4998 21.6694V26.5028H43.1757C45.5298 26.5028 47.0609 28.9801 46.0081 31.0856L40.6748 41.7523C40.1384 42.8251 39.0419 43.5028 37.8424 43.5028H28.8238C27.6244 43.5028 26.5279 42.8251 25.9915 41.7523L23.9403 37.65C23.5647 36.8988 23.5029 36.0292 23.7685 35.2324L28.6233 20.6681ZM31.6275 19.5028C30.6949 19.5028 29.8669 20.0995 29.572 20.9843L24.7172 35.5486C24.5355 36.0938 24.5778 36.6888 24.8348 37.2028L26.8859 41.3051C27.2529 42.0391 28.0032 42.5028 28.8238 42.5028H37.8424C38.6631 42.5028 39.4133 42.0391 39.7803 41.3051L45.1137 30.6384C45.834 29.1978 44.7864 27.5028 43.1757 27.5028H34.9998C34.7237 27.5028 34.4998 27.2789 34.4998 27.0028V21.6694C34.4998 20.4728 33.5297 19.5028 32.3331 19.5028H31.6275ZM20.9272 27.7564C21.2474 26.7958 22.2856 26.2767 23.2462 26.5969C24.2068 26.917 24.7259 27.9553 24.4057 28.9159L22.0883 35.868C22.0185 36.0776 22.0347 36.3065 22.1336 36.5042L24.3062 40.8496C24.7591 41.7552 24.392 42.8564 23.4864 43.3092C22.5807 43.762 21.4795 43.395 21.0267 42.4893L18.854 38.144C18.3202 37.0765 18.2324 35.8407 18.6098 34.7085L20.9272 27.7564ZM22.93 27.5455C22.4934 27.4 22.0214 27.636 21.8759 28.0726L19.5585 35.0247C19.265 35.9053 19.3333 36.8665 19.7484 37.6967L21.9211 42.0421C22.1269 42.4538 22.6275 42.6206 23.0391 42.4148C23.4508 42.209 23.6176 41.7084 23.4118 41.2968L21.2391 36.9514C21.0217 36.5165 20.9859 36.013 21.1397 35.5517L23.457 28.5996C23.6026 28.163 23.3666 27.6911 22.93 27.5455Z" fill="#87878C"/>
</svg>
