<svg viewBox="0 0 80 80" fill="none" xmlns="http://www.w3.org/2000/svg" class="global-loader__logo">
        <path d="M34.3406 1.51777C37.8424 -0.505923 42.1582 -0.505923 45.66 1.51777L69.9994 15.5836C73.4968 17.6048 75.6509 21.3376 75.6509 25.3771V53.7295C75.6509 57.769 73.4968 61.5018 69.9994 63.523L45.66 77.5888C42.1582 79.6125 37.8424 79.6125 34.3406 77.5888L10.0012 63.523C6.50375 61.5018 4.34961 57.769 4.34961 53.7295V25.3771C4.34961 21.3376 6.50375 17.6048 10.0012 15.5836L34.3406 1.51777Z" class="global-loader__logo-background"/>
        <path fill-rule="evenodd" clip-rule="evenodd" d="M20.5078 29.5933C20.5078 29.127 21.0126 28.8354 21.4166 29.0685L35.6565 37.2838C36.0316 37.5002 36.2628 37.9004 36.2628 38.3335V58.399C36.2628 58.8654 35.758 59.1569 35.354 58.9239L21.1141 50.7085C20.739 50.4921 20.5078 50.0919 20.5078 49.6588V43.6065C20.5078 43.3745 20.7579 43.2286 20.9599 43.3427L29.3471 48.0834C29.5491 48.1975 29.7992 48.0516 29.7992 47.8196V41.5388C29.7992 41.2475 29.6424 40.9787 29.3888 40.8354L21.1234 36.1636C20.743 35.9486 20.5078 35.5455 20.5078 35.1086V29.5933ZM58.5825 29.0685C58.9865 28.8354 59.4913 29.127 59.4913 29.5933V35.1086C59.4913 35.5455 59.2561 35.9486 58.8757 36.1636L50.6103 40.8354C50.3567 40.9787 50.1999 41.2475 50.1999 41.5388V47.8196C50.1999 48.0516 50.45 48.1975 50.6519 48.0834L59.0392 43.3427C59.2412 43.2286 59.4913 43.3745 59.4913 43.6065V49.6588C59.4913 50.0919 59.2601 50.4921 58.885 50.7085L44.6451 58.9239C44.2411 59.1569 43.7363 58.8654 43.7363 58.399V38.3335C43.7363 37.9004 43.9674 37.5002 44.3426 37.2838L58.5825 29.0685ZM38.8003 18.0167C39.5438 17.5934 40.4553 17.5934 41.1988 18.0167L52.9173 24.6885C53.324 24.9201 53.3258 25.5058 52.9205 25.7399L47.0632 29.1222C46.8164 29.2648 46.5127 29.2667 46.2641 29.1273L40.3946 25.8369C40.1492 25.6993 39.8499 25.6993 39.6044 25.8369L33.735 29.1273C33.4864 29.2667 33.1827 29.2648 32.9359 29.1222L27.0786 25.7399C26.6733 25.5058 26.6751 24.9201 27.0818 24.6885L38.8003 18.0167Z" class="global-loader__logo-icon"/>
      </svg>