<svg _ngcontent-bhq-c270="" xmlns="http://www.w3.org/2000/svg" xmlns:xlink="http://www.w3.org/1999/xlink"><symbol _ngcontent-bhq-c270="" fill="none" viewBox="0 0 32 32" id="globe-colored" xmlns="http://www.w3.org/2000/svg"><rect _ngcontent-bhq-c270="" width="32" height="32" rx="16" fill="#5627FF"/><path _ngcontent-bhq-c270="" fill-rule="evenodd" clip-rule="evenodd" d="M24.533 16a8.533 8.533 0 1 1-17.067 0 8.533 8.533 0 0 1 17.067 0Zm-10.884 6.411a9.04 9.04 0 0 1-.27-.71 14.727 14.727 0 0 1-.571-2.509 14.743 14.743 0 0 1-2.509-.572 9.028 9.028 0 0 1-.71-.27 6.847 6.847 0 0 0 4.06 4.061Zm-4.06-8.762a6.847 6.847 0 0 1 4.06-4.06 9.028 9.028 0 0 0-.27.71 14.724 14.724 0 0 0-.571 2.51c-.932.135-1.781.329-2.509.571a9.03 9.03 0 0 0-.71.27Zm8.761-4.06c.098.226.187.464.27.71.242.728.436 1.578.572 2.51.931.135 1.78.329 2.508.571.247.083.485.172.71.27a6.847 6.847 0 0 0-4.06-4.061Zm4.06 8.762a9.025 9.025 0 0 1-.71.269c-.727.242-1.577.436-2.508.572-.136.932-.33 1.781-.573 2.509a9.04 9.04 0 0 1-.269.71 6.847 6.847 0 0 0 4.06-4.06ZM16 9.173c.12 0 .264.2.326.279.222.282.46.742.674 1.387.172.516.32 1.12.435 1.79a23.789 23.789 0 0 0-2.871 0 12.32 12.32 0 0 1 .435-1.79c.215-.645.452-1.105.674-1.387.063-.08.205-.278.326-.279ZM9.45 16.326c.282.222.743.46 1.388.675.516.172 1.12.32 1.79.435a23.789 23.789 0 0 1 0-2.872 12.32 12.32 0 0 0-1.79.435c-.645.215-1.106.453-1.388.675-.161.127-.278.226-.278.326 0 .099.116.198.278.326ZM14.293 16c0 .568.021 1.12.061 1.646a21.817 21.817 0 0 0 3.291 0 21.818 21.818 0 0 0 0-3.291 21.818 21.818 0 0 0-3.29 0c-.04.526-.062 1.077-.062 1.645Zm.706 5.16c-.172-.515-.32-1.118-.435-1.79a23.702 23.702 0 0 0 2.871 0A12.318 12.318 0 0 1 17 21.16c-.215.646-.452 1.107-.674 1.388-.159.202-.258.274-.326.274s-.168-.072-.327-.274c-.222-.281-.459-.742-.674-1.387ZM21.16 17c-.515.173-1.119.32-1.79.436a23.706 23.706 0 0 0 0-2.872c.671.116 1.275.264 1.79.435.646.215 1.106.453 1.388.675.204.161.278.22.278.326 0 .107-.216.277-.278.326-.282.222-.742.46-1.388.675Z" fill="#fff"/></symbol><symbol _ngcontent-bhq-c270="" fill="none" viewBox="0 0 32 32" id="icons-social-behance-colored" xmlns="http://www.w3.org/2000/svg"><rect _ngcontent-bhq-c270="" width="32" height="32" rx="16" fill="#0057FF"/><g _ngcontent-bhq-c270="" clip-path="url(#ba)" fill="#fff"><path _ngcontent-bhq-c270="" d="M12.383 10.347c.464-.009.928.039 1.38.141a3.08 3.08 0 0 1 1.066.456c.299.216.535.508.685.844.173.414.256.86.244 1.308.02.492-.106.98-.362 1.4-.269.399-.64.716-1.075.92.59.16 1.104.523 1.45 1.027a3.19 3.19 0 0 1 .48 1.782c.01.5-.093.997-.304 1.452a2.83 2.83 0 0 1-.831 1.01c-.363.264-.77.459-1.204.576-.45.124-.914.186-1.38.185H7.414V10.347h4.97Zm-.295 4.49c.365.015.724-.094 1.018-.31a1.208 1.208 0 0 0 .4-1.009c.01-.219-.034-.437-.127-.636a.925.925 0 0 0-.354-.381 1.33 1.33 0 0 0-.508-.196 2.86 2.86 0 0 0-.597-.052H9.732v2.594h2.356v-.01Zm.128 4.726c.22.003.44-.02.655-.07.196-.044.382-.124.548-.237.162-.114.294-.266.382-.443.102-.226.149-.473.136-.721a1.484 1.484 0 0 0-.46-1.225 1.87 1.87 0 0 0-1.213-.36H9.732v3.056h2.484ZM19.554 19.522a1.831 1.831 0 0 0 1.36.484c.392.01.777-.11 1.095-.34.259-.168.455-.416.558-.707h1.849a3.636 3.636 0 0 1-1.36 2.07 3.786 3.786 0 0 1-2.211.628 4.185 4.185 0 0 1-1.634-.31 3.49 3.49 0 0 1-1.232-.864 4.033 4.033 0 0 1-.773-1.34 5.034 5.034 0 0 1-.274-1.709 4.939 4.939 0 0 1 .283-1.678 3.788 3.788 0 0 1 3.64-2.575 3.49 3.49 0 0 1 1.7.402c.473.259.88.621 1.193 1.06.32.462.549.979.675 1.525.139.587.188 1.19.147 1.792H19.06a2.186 2.186 0 0 0 .493 1.562ZM21.97 15.3a1.525 1.525 0 0 0-1.183-.443 1.674 1.674 0 0 0-.832.186 1.78 1.78 0 0 0-.528.442c-.13.17-.225.362-.283.566-.053.17-.086.347-.098.525h3.412a2.309 2.309 0 0 0-.486-1.275h-.002ZM22.881 11.088h-4.275v1.091h4.275v-1.091Z"/></g><defs _ngcontent-bhq-c270=""><clipPath _ngcontent-bhq-c270="" id="ba"><path _ngcontent-bhq-c270="" fill="#fff" transform="translate(7.414 10.347)" d="M0 0h17.173v11.307H0z"/></clipPath></defs></symbol><symbol _ngcontent-bhq-c270="" fill="none" viewBox="0 0 32 32" id="icons-social-codepen-colored" xmlns="http://www.w3.org/2000/svg"><rect _ngcontent-bhq-c270="" width="32" height="32" rx="16" fill="#05060F"/><path _ngcontent-bhq-c270="" d="M24.526 13.315c-.068-.444-.563-.683-.904-.905-.613-.41-1.21-.802-1.824-1.212-1.45-.973-2.916-1.947-4.365-2.92-.34-.222-.682-.461-1.023-.683a.718.718 0 0 0-.818 0c-.972.649-1.961 1.315-2.933 1.964l-4.296 2.868c-.376.24-.87.478-.887.99-.017.564 0 1.145 0 1.708v2.732c0 .495-.102 1.076.358 1.383 1.091.752 2.2 1.469 3.308 2.203 1.364.905 2.728 1.827 4.092 2.732.375.256.75.53 1.21.222.392-.256.768-.512 1.16-.768 1.517-1.008 3.035-2.032 4.552-3.04l1.688-1.127c.102-.068.222-.136.324-.222.239-.17.34-.41.34-.7v-4.695c.018-.188.035-.359.018-.53 0-.017 0 .034 0 0Zm-7.792-3.74 5.746 3.843-2.558 1.724-3.188-2.134V9.576Zm-1.466 0v3.416l-3.171 2.134-2.575-1.707 5.746-3.842Zm-6.326 5.209 1.825 1.23-1.825 1.229v-2.46Zm6.326 7.667-5.746-3.842 2.557-1.725 3.172 2.134v3.433h.017ZM16 17.755l-2.592-1.742 2.592-1.742 2.591 1.742-2.591 1.742Zm.733 4.696v-3.416l3.171-2.134 2.558 1.725-5.729 3.825Zm6.326-5.208-1.825-1.23 1.842-1.23-.017 2.46Z" fill="#fff"/></symbol><symbol _ngcontent-bhq-c270="" fill="none" viewBox="0 0 32 32" id="icons-social-dribble-colored" xmlns="http://www.w3.org/2000/svg"><rect _ngcontent-bhq-c270="" width="32" height="32" rx="16" fill="#EA4C89"/><path _ngcontent-bhq-c270="" fill-rule="evenodd" clip-rule="evenodd" d="M16 7.467A8.536 8.536 0 0 0 7.466 16 8.536 8.536 0 0 0 16 24.534c4.701 0 8.533-3.823 8.533-8.534S20.701 7.467 16 7.467Zm1.079 5.529a38.798 38.798 0 0 0-2.393-3.766A7.153 7.153 0 0 1 16 9.11c1.683 0 3.229.606 4.428 1.61-.331.406-1.353 1.489-3.35 2.275Zm-1.783.55c-2.747.697-5.182.781-5.997.791a6.94 6.94 0 0 1 3.61-4.503c.35.485 1.382 1.963 2.387 3.713Zm2.521.873c2.1-.898 3.257-2.082 3.68-2.574a6.867 6.867 0 0 1 1.393 3.84c-.697-.126-2.626-.42-4.602-.199l-.022-.055a20.543 20.543 0 0 0-.448-1.011Zm-8.724 1.59v-.005c.85.003 3.862-.064 6.99-.974.139.272.27.55.396.828l-.052.015-.004.001c-3.266 1.054-5.193 3.696-5.741 4.536a6.884 6.884 0 0 1-1.59-4.401Zm11.018 5.529A31.688 31.688 0 0 0 18.864 17c1.8-.23 3.373.134 3.907.283a6.84 6.84 0 0 1-2.66 4.254Zm-8.207.02c.35-.628 1.813-2.892 5.239-4.136a29.41 29.41 0 0 1 1.404 4.997 6.795 6.795 0 0 1-2.547.488 6.853 6.853 0 0 1-4.095-1.35Z" fill="#fff"/></symbol><symbol _ngcontent-bhq-c270="" fill="none" viewBox="0 0 32 32" id="icons-social-figma-colored" xmlns="http://www.w3.org/2000/svg"><rect _ngcontent-bhq-c270="" width="32" height="32" rx="16" fill="#000"/><g _ngcontent-bhq-c270="" clip-path="url(#ea)"><path _ngcontent-bhq-c270="" d="M16.107 16.213a2.904 2.904 0 1 1 5.807 0 2.904 2.904 0 0 1-5.807 0Z" fill="#1ABCFE"/><path _ngcontent-bhq-c270="" d="M10.3 22.02c0-1.603 1.3-2.903 2.903-2.903h2.904v2.903a2.903 2.903 0 0 1-5.807 0Z" fill="#0ACF83"/><path _ngcontent-bhq-c270="" d="M16.107 7.503v5.807h2.903a2.904 2.904 0 0 0 0-5.807h-2.903Z" fill="#FF7262"/><path _ngcontent-bhq-c270="" d="M10.3 10.406c0 1.604 1.3 2.904 2.903 2.904h2.904V7.503h-2.904a2.903 2.903 0 0 0-2.903 2.903Z" fill="#F24E1E"/><path _ngcontent-bhq-c270="" d="M10.3 16.213c0 1.604 1.3 2.904 2.903 2.904h2.904V13.31h-2.904a2.904 2.904 0 0 0-2.903 2.903Z" fill="#A259FF"/></g><defs _ngcontent-bhq-c270=""><clipPath _ngcontent-bhq-c270="" id="ea"><path _ngcontent-bhq-c270="" fill="#fff" transform="translate(10.24 7.413)" d="M0 0h11.733v17.6H0z"/></clipPath></defs></symbol><symbol _ngcontent-bhq-c270="" fill="none" viewBox="0 0 32 32" id="icons-social-linkedin-colored" xmlns="http://www.w3.org/2000/svg"><rect _ngcontent-bhq-c270="" width="32" height="32" rx="16" fill="#0072B1"/><path _ngcontent-bhq-c270="" d="M22.8 8H9.2A1.2 1.2 0 0 0 8 9.2v13.6A1.2 1.2 0 0 0 9.2 24h13.6a1.2 1.2 0 0 0 1.2-1.2V9.2A1.2 1.2 0 0 0 22.8 8Zm-10 13.6h-2.4v-7.2h2.4v7.2ZM11.6 13a1.4 1.4 0 1 1 1.44-1.4A1.424 1.424 0 0 1 11.6 13Zm10 8.6h-2.4v-3.792c0-1.136-.48-1.544-1.104-1.544a1.394 1.394 0 0 0-1.296 1.488.524.524 0 0 0 0 .112V21.6h-2.4v-7.2h2.32v1.04a2.488 2.488 0 0 1 2.16-1.12c1.24 0 2.688.688 2.688 2.928L21.6 21.6Z" fill="#fff"/></symbol><symbol _ngcontent-bhq-c270="" fill="none" viewBox="0 0 32 32" id="icons-social-medium-colored" xmlns="http://www.w3.org/2000/svg"><rect _ngcontent-bhq-c270="" width="32" height="32" rx="16" fill="#05060F"/><path _ngcontent-bhq-c270="" d="M17.14 16c0 2.906-2.248 5.262-5.021 5.262-2.774 0-5.023-2.356-5.023-5.261 0-2.906 2.249-5.262 5.023-5.262 2.773 0 5.022 2.356 5.022 5.262Zm5.51 0c0 2.736-1.124 4.954-2.51 4.954-1.388 0-2.512-2.218-2.512-4.953 0-2.735 1.124-4.954 2.51-4.954 1.388 0 2.512 2.218 2.512 4.954Zm2.254 0c0 2.45-.396 4.438-.883 4.438-.488 0-.883-1.987-.883-4.437s.395-4.438.883-4.438c.487 0 .883 1.987.883 4.438Z" fill="#fff"/></symbol><symbol _ngcontent-bhq-c270="" fill="none" viewBox="0 0 32 32" id="icons-social-webflow-colored" xmlns="http://www.w3.org/2000/svg"><rect _ngcontent-bhq-c270="" width="32" height="32" rx="16" fill="#4353FF"/><path _ngcontent-bhq-c270="" d="M20.88 13.944s-1.384 4.336-1.488 4.704c-.04-.368-1.048-8.16-1.048-8.16-2.36 0-3.616 1.672-4.28 3.456 0 0-1.68 4.352-1.816 4.72-.008-.344-.256-4.672-.256-4.672-.144-2.176-2.128-3.496-3.736-3.496l1.936 11.808c2.472-.008 3.8-1.68 4.496-3.456 0 0 1.48-3.84 1.544-4.016.016.168 1.064 7.472 1.064 7.472 2.472 0 3.808-1.568 4.528-3.28l3.456-8.536c-2.448 0-3.736 1.672-4.4 3.456Z" fill="#fff"/></symbol></svg>