<svg width="40" height="40" viewBox="0 0 40 40" fill="none" xmlns="http://www.w3.org/2000/svg">
<path d="M17.1702 0.758885C18.9211 -0.252961 21.079 -0.252962 22.8299 0.758885L34.9996 7.7918C36.7483 8.80239 37.8254 10.6688 37.8254 12.6885V26.8648C37.8254 28.8845 36.7483 30.7509 34.9996 31.7615L22.8299 38.7944C21.079 39.8063 18.9211 39.8063 17.1702 38.7944L5.00047 31.7615C3.25175 30.7509 2.17468 28.8845 2.17468 26.8648V12.6885C2.17468 10.6688 3.25175 8.80239 5.00047 7.7918L17.1702 0.758885Z" fill="#FF7527"/>
<path fill-rule="evenodd" clip-rule="evenodd" d="M10.254 14.7967C10.254 14.5635 10.5064 14.4177 10.7084 14.5342L17.8283 18.6419C18.0159 18.7501 18.1315 18.9502 18.1315 19.1668V29.1995C18.1315 29.4327 17.8791 29.5785 17.6771 29.4619L10.5571 25.3543C10.3695 25.246 10.254 25.0459 10.254 24.8294V21.8032C10.254 21.6872 10.379 21.6143 10.48 21.6714L14.6736 24.0417C14.7746 24.0988 14.8997 24.0258 14.8997 23.9098V20.7694C14.8997 20.6237 14.8213 20.4894 14.6945 20.4177L10.5618 18.0818C10.3716 17.9743 10.254 17.7728 10.254 17.5543V14.7967ZM29.2913 14.5342C29.4933 14.4177 29.7457 14.5635 29.7457 14.7967V17.5543C29.7457 17.7728 29.6281 17.9743 29.4379 18.0818L25.3052 20.4177C25.1784 20.4894 25.1 20.6237 25.1 20.7694V23.9098C25.1 24.0258 25.225 24.0988 25.326 24.0417L29.5197 21.6714C29.6206 21.6143 29.7457 21.6872 29.7457 21.8032V24.8294C29.7457 25.0459 29.6301 25.246 29.4425 25.3543L22.3226 29.4619C22.1206 29.5785 21.8682 29.4327 21.8682 29.1995V19.1668C21.8682 18.9502 21.9838 18.7501 22.1714 18.6419L29.2913 14.5342ZM19.4002 9.00834C19.7719 8.7967 20.2277 8.7967 20.5995 9.00834L26.4587 12.3443C26.6621 12.4601 26.663 12.7529 26.4603 12.8699L23.5317 14.5611C23.4083 14.6324 23.2564 14.6333 23.1321 14.5637L20.1974 12.9184C20.0747 12.8496 19.925 12.8496 19.8023 12.9184L16.8676 14.5637C16.7432 14.6333 16.5914 14.6324 16.468 14.5611L13.5394 12.8699C13.3367 12.7529 13.3376 12.4601 13.541 12.3443L19.4002 9.00834Z" fill="white"/>
</svg>
