<svg width="40" height="40" viewBox="0 0 40 40" fill="none" xmlns="http://www.w3.org/2000/svg">
<path d="M17.1696 0.758885C18.9205 -0.252961 21.0784 -0.252962 22.8293 0.758885L34.999 7.7918C36.7477 8.80239 37.8247 10.6688 37.8247 12.6885V26.8648C37.8247 28.8845 36.7477 30.7509 34.999 31.7615L22.8293 38.7944C21.0784 39.8063 18.9205 39.8063 17.1696 38.7944L4.99986 31.7615C3.25114 30.7509 2.17407 28.8845 2.17407 26.8648V12.6885C2.17407 10.6688 3.25114 8.80239 4.99986 7.7918L17.1696 0.758885Z" fill="white"/>
<path fill-rule="evenodd" clip-rule="evenodd" d="M10.2539 14.7967C10.2539 14.5635 10.5063 14.4177 10.7083 14.5342L17.8282 18.6419C18.0158 18.7501 18.1314 18.9502 18.1314 19.1668V29.1995C18.1314 29.4327 17.879 29.5785 17.677 29.4619L10.5571 25.3543C10.3695 25.246 10.2539 25.0459 10.2539 24.8294V21.8032C10.2539 21.6872 10.379 21.6143 10.4799 21.6714L14.6736 24.0417C14.7746 24.0988 14.8996 24.0258 14.8996 23.9098V20.7694C14.8996 20.6237 14.8212 20.4894 14.6944 20.4177L10.5617 18.0818C10.3715 17.9743 10.2539 17.7728 10.2539 17.5543V14.7967ZM29.2912 14.5342C29.4932 14.4177 29.7456 14.5635 29.7456 14.7967V17.5543C29.7456 17.7728 29.628 17.9743 29.4378 18.0818L25.3051 20.4177C25.1783 20.4894 25.0999 20.6237 25.0999 20.7694V23.9098C25.0999 24.0258 25.225 24.0988 25.326 24.0417L29.5196 21.6714C29.6206 21.6143 29.7456 21.6872 29.7456 21.8032V24.8294C29.7456 25.0459 29.6301 25.246 29.4425 25.3543L22.3225 29.4619C22.1205 29.5785 21.8681 29.4327 21.8681 29.1995V19.1668C21.8681 18.9502 21.9837 18.7501 22.1713 18.6419L29.2912 14.5342ZM19.4001 9.00834C19.7719 8.7967 20.2277 8.7967 20.5994 9.00834L26.4586 12.3443C26.662 12.4601 26.6629 12.7529 26.4602 12.8699L23.5316 14.5611C23.4082 14.6324 23.2564 14.6333 23.132 14.5637L20.1973 12.9184C20.0746 12.8496 19.9249 12.8496 19.8022 12.9184L16.8675 14.5637C16.7432 14.6333 16.5913 14.6324 16.4679 14.5611L13.5393 12.8699C13.3366 12.7529 13.3375 12.4601 13.5409 12.3443L19.4001 9.00834Z" fill="#05060F"/>
</svg>
