<svg width="40" height="40" viewBox="0 0 40 40" fill="none" xmlns="http://www.w3.org/2000/svg">
<path d="M17.1701 0.758885C18.921 -0.252961 21.0789 -0.252962 22.8298 0.758885L34.9995 7.7918C36.7483 8.80239 37.8253 10.6688 37.8253 12.6885V26.8648C37.8253 28.8845 36.7482 30.7509 34.9995 31.7615L22.8298 38.7944C21.0789 39.8063 18.921 39.8063 17.1701 38.7944L5.00044 31.7615C3.25172 30.7509 2.17465 28.8845 2.17465 26.8648V12.6885C2.17465 10.6688 3.25172 8.80239 5.00044 7.7918L17.1701 0.758885Z" fill="#05060F"/>
<path fill-rule="evenodd" clip-rule="evenodd" d="M10.2539 14.7967C10.2539 14.5635 10.5063 14.4177 10.7083 14.5342L17.8283 18.6419C18.0159 18.7501 18.1314 18.9502 18.1314 19.1668V29.1995C18.1314 29.4327 17.879 29.5785 17.677 29.4619L10.5571 25.3543C10.3695 25.246 10.2539 25.0459 10.2539 24.8294V21.8032C10.2539 21.6872 10.379 21.6143 10.48 21.6714L14.6736 24.0417C14.7746 24.0988 14.8996 24.0258 14.8996 23.9098V20.7694C14.8996 20.6237 14.8212 20.4894 14.6944 20.4177L10.5617 18.0818C10.3715 17.9743 10.2539 17.7728 10.2539 17.5543V14.7967ZM29.2913 14.5342C29.4933 14.4177 29.7457 14.5635 29.7457 14.7967V17.5543C29.7457 17.7728 29.6281 17.9743 29.4379 18.0818L25.3052 20.4177C25.1784 20.4894 25.1 20.6237 25.1 20.7694V23.9098C25.1 24.0258 25.225 24.0988 25.326 24.0417L29.5196 21.6714C29.6206 21.6143 29.7457 21.6872 29.7457 21.8032V24.8294C29.7457 25.0459 29.6301 25.246 29.4425 25.3543L22.3226 29.4619C22.1206 29.5785 21.8682 29.4327 21.8682 29.1995V19.1668C21.8682 18.9502 21.9837 18.7501 22.1713 18.6419L29.2913 14.5342ZM19.4002 9.00834C19.7719 8.7967 20.2277 8.7967 20.5994 9.00834L26.4587 12.3443C26.662 12.4601 26.6629 12.7529 26.4603 12.8699L23.5316 14.5611C23.4082 14.6324 23.2564 14.6333 23.1321 14.5637L20.1973 12.9184C20.0746 12.8496 19.925 12.8496 19.8023 12.9184L16.8675 14.5637C16.7432 14.6333 16.5914 14.6324 16.468 14.5611L13.5393 12.8699C13.3367 12.7529 13.3376 12.4601 13.5409 12.3443L19.4002 9.00834Z" fill="white"/>
</svg>
